<?xml version="1.0" encoding="UTF-8" standalone="no"?>
<!-- Created with Inkscape (http://www.inkscape.org/) -->

<svg 
width="297mm"
height="123mm"
viewBox="0 0 297 123"
version="1.1"
id="svg5"
>
    <g id="layer3-0" transform="matrix(0.99967824,0,0,1.1182962,0.0431596,-74.003475)">
        <g id="g7845" transform="matrix(1.4505688,0,0,1.5608526,-46.327582,-38.486034)">
            <path className="letter"
                d="m 43.627974,101.45773 c 1.057619,0.0307 1.749565,0.0705 2.107869,0.13167 0.368931,0.0342 0.634222,0.15928 0.797298,0.37687 0.178053,0.2175 0.281265,0.60918 0.305827,1.17288 0.01607,0.11804 0.0138,0.32216 0.0138,0.32216 0.03837,0.91117 0.03592,1.52985 3.68e-4,1.84849 -0.03572,0.32014 -0.131621,0.47777 -0.286618,0.4732 -0.123999,-0.004 -0.360522,-0.14434 -0.710376,-0.42202 -0.761804,-0.55722 -1.498657,-0.95427 -2.210026,-1.193 -1.137088,-0.33423 -2.223975,-0.52631 -3.261869,-0.57852 -0.463518,-0.0233 -0.807758,-0.0288 -1.032755,-0.0149 -0.245037,0.82603 -0.358582,1.58912 -0.336102,2.29741 0.08576,1.95645 0.185494,5.80661 0.185494,5.80661 0.471233,0.24299 0.916452,0.37908 1.336705,0.40815 0.387733,0.0268 0.848155,-0.0334 1.378641,-0.18266 0.357862,-0.11121 1.034436,-0.36866 1.034436,-0.36866 0.416014,-0.15912 0.67777,-0.23661 0.789445,-0.23041 0.12717,0.007 0.222337,0.10423 0.285254,0.29167 0.06294,0.16101 0.09375,0.43893 0.09095,0.83235 0.0087,0.36539 -0.0102,1.06112 -0.0102,1.06112 -0.0051,0.4185 -0.04164,0.7173 -0.108011,0.89606 -0.06643,0.17889 -0.163296,0.26434 -0.290302,0.25651 -0.111207,-0.007 -0.347719,-0.11284 -0.711456,-0.3186 -0.426722,-0.26197 -0.792744,-0.45554 -1.096026,-0.58003 -0.526862,-0.21764 -0.993162,-0.34109 -1.396821,-0.36983 -0.435992,-0.031 -0.85003,0.0296 -1.241407,0.18178 0.06269,2.53603 0.08137,7.5307 0.08137,7.5307 0.0069,1.49217 0.06068,2.69663 0.166297,3.62273 0.106439,0.89975 0.248003,1.76021 0.423193,2.57964 0.109669,0.58715 0.157732,0.98143 0.147857,1.18148 -0.0062,0.12554 -0.03554,0.26228 -0.0878,0.4104 -0.141749,0.44489 -0.353535,0.66086 -0.635568,0.64701 -0.133784,-0.007 -0.294502,-0.0774 -0.483133,-0.21323 -0.188665,-0.13584 -0.370662,-0.27186 -0.545887,-0.40796 -0.407966,-0.35162 -0.7051,-0.53448 -0.885762,-0.54478 -0.195216,-0.0111 -0.524664,0.13566 -0.980514,0.44334 -0.04404,0.0233 -0.198196,0.11829 -0.454314,0.28334 -0.242104,0.16654 -0.459429,0.24523 -0.653943,0.23485 -0.298894,-0.016 -0.500385,-0.27193 -0.605787,-0.77005 -0.0301,-0.15708 -0.04525,-0.28739 -0.04525,-0.39097 0,-0.18115 0.03026,-0.39952 0.09141,-0.65429 0.06128,-0.28122 0.09976,-0.47159 0.115357,-0.57451 0.200504,-0.78806 0.374921,-1.62813 0.520918,-2.52039 0.145929,-0.91667 0.250331,-2.12454 0.308162,-3.61642 0.195857,-5.01393 0.505139,-15.11511 0.505139,-15.11511 0.01502,-0.49244 -0.03613,-0.95108 -0.1528,-1.37505 -0.116802,-0.45011 -0.26647,-0.92809 -0.448769,-1.43412 -0.03255,-0.10499 -0.09057,-0.27765 -0.173461,-0.51725 -0.08291,-0.26539 -0.12441,-0.46284 -0.124728,-0.59253 -9.15e-4,-0.23415 0.121666,-0.39423 0.366155,-0.48206 0.260803,-0.11279 0.708243,-0.14895 1.339078,-0.11181 2.239141,0.13183 4.430491,0.22632 6.578664,0.28876 z"
                id="path7690"
            />
            <path className="letter"
                d="m 55.072068,129.69154 c -0.515791,0.28809 -0.919673,0.42646 -1.210641,0.41594 -0.305916,-0.0111 -0.609777,-0.17499 -0.914859,-0.49574 -0.180198,-0.17349 -0.344528,-0.31147 -0.492413,-0.41324 -0.136594,-0.0773 -0.307851,-0.1203 -0.513603,-0.12875 -0.235178,-0.01 -0.445867,0.0176 -0.631994,0.082 -0.174597,0.0889 -0.383381,0.21245 -0.625912,0.3704 -0.393563,0.29544 -0.743989,0.43701 -1.051346,0.42479 -0.366208,-0.0146 -0.782784,-0.21051 -1.255669,-0.59359 -0.420268,-0.33293 -0.69816,-1.08524 -0.851972,-2.28074 -0.154412,-1.20014 -0.152756,-2.75566 -0.01924,-4.71581 0.05544,-0.81394 0.131447,-1.67973 0.226083,-2.60514 0.240853,-2.18492 0.553759,-6.68165 0.553759,-6.68165 0.03579,-0.52755 0.01407,-1.01922 -0.06387,-1.47363 -0.06239,-0.45382 -0.165545,-0.96294 -0.310677,-1.52728 -0.130053,-0.59143 -0.197948,-0.96517 -0.200467,-1.12621 -0.0046,-0.29355 0.107842,-0.50319 0.337414,-0.62974 0.229585,-0.12658 0.637642,-0.18127 1.222028,-0.16628 0.203688,0.0156 0.575689,0.0141 0.575689,0.0141 0.659266,0.0155 1.109842,0.091 1.357571,0.23078 0.261708,0.11283 0.396696,0.31786 0.403752,0.61489 0.0045,0.18812 -0.07071,0.55263 -0.230168,1.08609 -0.144438,0.53471 -0.26228,1.04064 -0.352397,1.51988 -0.0901,0.47917 -0.128993,0.99823 -0.11777,1.55797 0.06525,2.01008 0.03089,5.92843 0.03089,5.92843 -0.01561,1.17038 0.143429,2.0775 0.490554,2.73591 0.346493,0.6572 0.771726,0.99576 1.285027,1.01952 0.526919,0.0244 1.017003,-0.27178 1.460875,-0.89483 0.443541,-0.62258 0.733447,-1.5179 0.846491,-2.69172 0.191261,-1.94831 0.3839,-5.9769 0.3839,-5.9769 0.01681,-0.56605 -0.0235,-1.08134 -0.118383,-1.54347 -0.09518,-0.48936 -0.231244,-1.02071 -0.409352,-1.59386 -0.177694,-0.54656 -0.271179,-0.91391 -0.277021,-1.10527 -0.0092,-0.29985 0.10368,-0.50347 0.339132,-0.61151 0.249427,-0.13531 0.702228,-0.20183 1.35607,-0.20191 0.196987,0.0106 0.556407,-6.1e-4 0.556407,-6.1e-4 0.548294,-0.001 0.927445,0.0656 1.140068,0.20262 0.227253,0.13682 0.347701,0.35734 0.359654,0.66092 0.0053,0.13577 -0.03866,0.5132 -0.139083,1.11625 -0.100897,0.6059 -0.179204,1.13835 -0.232119,1.60371 -0.05324,0.43743 -0.06353,0.94162 -0.0335,1.51333 0.130787,2.33769 0.131017,6.86535 0.131017,6.86535 -4.58e-4,0.44276 -0.03201,1.08865 -0.104782,1.91011 -0.189057,2.13403 -0.606529,3.83478 -1.174586,5.12741 -0.553238,1.29285 -1.142916,2.1034 -1.724546,2.45742 z"
                id="path7692"
            />
            <path className="letter"
                d="m 63.066271,129.81707 c -0.198033,0.41194 -0.437036,0.6108 -0.710195,0.60279 -0.129741,-0.004 -0.276711,-0.0655 -0.44125,-0.18573 -0.164622,-0.12033 -0.32256,-0.24106 -0.473756,-0.36214 -0.347307,-0.31386 -0.609382,-0.47577 -0.783727,-0.48147 -0.189099,-0.006 -0.528163,0.1359 -1.019682,0.42386 -0.04825,0.022 -0.209677,0.10985 -0.486715,0.26391 -0.26198,0.15424 -0.487438,0.22808 -0.67557,0.222 -0.289868,-0.009 -0.444244,-0.23419 -0.467952,-0.6813 -0.0044,-0.1413 0.0013,-0.25915 0.0174,-0.35328 0.02824,-0.16472 0.09129,-0.36424 0.188874,-0.59978 0.101192,-0.25853 0.166936,-0.43843 0.196555,-0.53293 0.308219,-0.73571 0.589049,-1.53385 0.836314,-2.39724 0.249018,-0.8828 0.484326,-2.07263 0.664368,-3.56489 0.342889,-2.83177 0.588085,-6.0938 0.631165,-9.79403 0.03917,-3.36418 -0.105757,-6.09842 -0.105757,-6.09842 -0.02211,-0.53102 -0.102812,-1.01967 -0.239556,-1.46423 -0.139038,-0.47273 -0.31122,-0.9722 -0.516855,-1.49832 -0.03856,-0.11033 -0.105577,-0.29147 -0.200414,-0.53999 -0.09766,-0.27703 -0.153458,-0.485 -0.166924,-0.62458 -0.02423,-0.25113 0.06509,-0.43588 0.267803,-0.55501 0.214158,-0.14756 0.598506,-0.2315 1.151627,-0.25331 0.330979,-0.002 0.955309,-0.0392 0.955309,-0.0392 0.536724,-0.0229 0.917356,0.0303 1.144422,0.16152 0.223865,0.10306 0.350297,0.28152 0.378489,0.53551 0.01878,0.16921 0.0068,0.38267 -0.03681,0.63964 -0.04416,0.26008 -0.06987,0.41094 -0.07869,0.47099 -0.100824,0.54266 -0.18039,1.05512 -0.237252,1.53803 -0.0426,0.48244 -0.03463,1.00469 0.02291,1.5678 0.318803,3.08448 0.550232,6.53021 0.558549,10.18669 0.0076,3.33545 -0.184952,5.86117 -0.184952,5.86117 -0.09763,1.52451 -0.160836,2.68804 -0.15515,3.60099 0.0091,0.87537 0.04623,1.69637 0.114843,2.46664 0.03376,0.55119 0.02867,0.91783 -0.0072,1.10312 -0.02256,0.1166 -0.06929,0.24375 -0.140237,0.38116 0,0 -6e-6,3e-5 -6e-6,3e-5 z"
                id="path7694"
            />
            <path className="letter"
                d="m 69.498602,129.99388 c -0.20517,0.40907 -0.447743,0.60617 -0.71887,0.59946 -0.128836,-0.003 -0.273476,-0.0634 -0.43412,-0.18138 -0.160742,-0.11808 -0.314819,-0.23665 -0.462182,-0.35566 -0.337762,-0.30881 -0.594064,-0.46788 -0.767031,-0.47259 -0.187826,-0.005 -0.526876,0.1377 -1.022415,0.42466 -0.04894,0.0222 -0.210461,0.10934 -0.490218,0.26273 -0.264279,0.15322 -0.490536,0.22681 -0.677221,0.22169 -0.287898,-0.008 -0.434496,-0.22805 -0.445998,-0.6689 -6.04e-4,-0.13941 0.0081,-0.25589 0.02659,-0.34904 0.03229,-0.16305 0.09988,-0.36083 0.202305,-0.59511 0.106404,-0.25673 0.175842,-0.43681 0.207181,-0.53063 0.321861,-0.7339 0.61491,-1.53393 0.872328,-2.40372 0.259349,-0.88897 0.506476,-2.09166 0.692549,-3.60787 0.354863,-2.88168 0.583602,-6.21408 0.571613,-10.01201 -0.01089,-3.45017 -0.221612,-6.24563 -0.221612,-6.24563 -0.03413,-0.54301 -0.124927,-1.04138 -0.269586,-1.4934 -0.14761,-0.48079 -0.328582,-0.98806 -0.543281,-1.52156 -0.04053,-0.11184 -0.11086,-0.29582 -0.210107,-0.54762 -0.102827,-0.28099 -0.163019,-0.4921 -0.18004,-0.63427 -0.03062,-0.25572 0.05129,-0.44576 0.245781,-0.57086 0.204834,-0.15429 0.577689,-0.24674 1.117518,-0.27843 0.323229,-0.008 0.932819,-0.0559 0.932819,-0.0559 0.524319,-0.0321 0.898439,0.0161 1.124291,0.14626 0.221958,0.1015 0.350572,0.28137 0.384926,0.53982 0.02289,0.17219 0.01682,0.38999 -0.01915,0.65277 -0.03642,0.26606 -0.05764,0.42026 -0.06472,0.48176 -0.08456,0.5553 -0.149345,1.08011 -0.192911,1.57448 -0.02964,0.49375 -0.0091,1.02766 0.06042,1.60292 0.384029,3.1494 0.677336,6.686 0.717562,10.43064 0.03672,3.41842 -0.163659,5.98734 -0.163659,5.98734 -0.100859,1.55543 -0.173495,2.72406 -0.177974,3.64821 -6.64e-4,0.88216 0.02434,1.70541 0.0794,2.47422 0.02418,0.54994 0.01196,0.91467 -0.02723,1.09873 -0.02468,0.11594 -0.07363,0.24237 -0.146954,0.3789 0,0 2e-6,4e-5 2e-6,4e-5 z"
                id="path7696"
            />
            <path className="letter"
                d="m 71.689431,130.04689 c -0.254246,-0.46649 -0.390628,-0.91694 -0.406677,-1.34737 -0.01617,-0.43364 0.05445,-1.06518 0.195344,-1.93802 0.289682,-1.73074 0.639437,-5.46757 0.639437,-5.46757 0.08375,-1.11156 0.326416,-1.67867 0.774313,-1.67848 0.243848,1.1e-4 0.47429,0.1244 0.689977,0.37287 0.216805,0.22046 0.497745,0.57962 0.835782,1.07306 0.375731,0.57629 0.70855,1.03808 1.006781,1.39167 0.297768,0.35303 0.649041,0.63753 1.055845,0.85512 0.283548,0.16293 0.567781,0.2455 0.852941,0.24771 0.611382,0.005 1.167649,-0.29843 1.647954,-0.92335 0.482904,-0.65248 0.76288,-1.53823 0.814473,-2.66755 0.0064,-0.13927 0.0044,-0.4116 -0.01017,-0.80775 -0.05364,-0.91 -0.283031,-1.7145 -0.675603,-2.40122 -0.378496,-0.71614 -0.998248,-1.37119 -1.854825,-1.95976 -0.296138,-0.18452 -0.922053,-0.58624 -0.922053,-0.58624 -0.744497,-0.44513 -1.349902,-0.84869 -1.815057,-1.21247 -0.451,-0.36417 -0.843144,-0.81609 -1.180176,-1.35666 -0.337222,-0.54087 -0.528082,-1.201 -0.581907,-1.9857 -0.04187,-0.61037 0.01191,-1.28314 0.155918,-2.02206 0.244754,-1.32674 0.299539,-2.43881 0.193947,-3.31032 -0.05648,-0.46612 -0.146413,-0.84249 -0.266539,-1.1277 -0.261882,-0.62848 -0.42455,-1.15808 -0.486053,-1.5926 -0.086,-0.60761 0.03822,-0.92278 0.378553,-0.94751 1.260422,-0.0802 3.716346,-0.28345 3.716346,-0.28345 1.248447,-0.0879 3.687217,-0.30367 3.687217,-0.30367 0.240681,-0.0204 0.444121,0.17105 0.607652,0.57663 0.171537,0.37402 0.319906,0.93396 0.436112,1.67704 0.067,0.4284 0.172558,1.28597 0.278938,2.47102 0.118753,1.29177 0.193172,2.1846 0.264562,2.84487 0.06508,0.60192 0.140362,1.1573 0.228223,1.66679 0.02465,0.11931 0.0534,0.28471 0.0852,0.49433 0.04302,0.17898 0.06797,0.31382 0.07532,0.40396 0.01962,0.24064 -0.02051,0.43887 -0.119748,0.59439 -0.0877,0.12485 -0.269946,0.19374 -0.546548,0.20681 -0.42457,0.0316 -1.308698,0.0607 -1.308698,0.0607 -0.430594,0.0196 -0.660232,-0.20909 -0.69573,-0.68489 -0.0089,-0.1191 -0.0063,-0.26849 0.0071,-0.44866 0.02491,-0.21035 0.03885,-0.37619 0.04251,-0.49593 0.04974,-0.72132 0.03145,-1.48583 -0.05616,-2.29172 -0.07783,-0.71589 -0.209943,-1.35426 -0.390492,-1.91194 -0.16691,-0.5586 -0.351119,-0.95101 -0.546319,-1.17626 -0.432001,-0.44849 -0.961734,-0.64821 -1.587786,-0.60402 -0.286034,0.0202 -0.555299,0.11337 -0.808772,0.27909 -0.243769,0.13537 -0.432561,0.32586 -0.567073,0.57165 -0.154554,0.30655 -0.254427,0.72687 -0.303802,1.26267 -0.03897,0.50556 -0.02677,1.06631 0.03427,1.68388 0.06103,0.61742 0.163535,1.21744 0.308684,1.80071 0.156743,0.55339 0.342424,1.00148 0.561957,1.34607 0.390993,0.60245 0.80479,1.10129 1.246435,1.49729 0.455782,0.39563 1.080145,0.85853 1.872048,1.39241 0.69121,0.478 1.287057,0.9316 1.788195,1.35919 0.500274,0.39801 0.987355,0.90102 1.455533,1.50729 0.825969,1.054 1.274392,3.13092 1.067189,5.9824 -0.115703,1.59228 -0.422228,3.12748 -0.918566,4.58338 -0.479409,1.44773 -1.033912,2.40117 -1.574088,2.92695 -0.801961,0.80363 -1.576494,1.17762 -2.264724,1.16495 -0.382169,-0.007 -0.893255,-0.16175 -1.532053,-0.47043 -0.397825,-0.19072 -0.720637,-0.33536 -0.970787,-0.43331 -0.254902,-0.0746 -0.538994,-0.11534 -0.852701,-0.12187 -0.272286,-0.006 -0.726123,0.14814 -1.372345,0.45521 -0.643658,0.30584 -1.134431,0.45225 -1.460965,0.445 -0.370863,-0.008 -0.67869,-0.21717 -0.928384,-0.63652 0,0 3e-6,-7e-5 3e-6,-7e-5 z"
                id="path7698"
            />
            <path className="letter"
                d="m 90.705958,123.14937 c 0.160441,-0.0855 0.30321,-0.12885 0.429026,-0.12969 0.445513,-0.003 0.774881,0.42145 0.961548,1.25634 0.186016,0.83196 0.210127,1.78666 0.05245,2.82627 -0.122188,0.80562 -0.33415,1.50514 -0.626192,2.10864 -0.286506,0.57811 -0.620422,0.97068 -0.983871,1.19618 -0.626058,0.38311 -1.131958,0.56577 -1.495101,0.56109 -0.281346,-0.004 -0.525251,-0.1517 -0.733665,-0.45105 -0.166727,-0.18544 -0.30271,-0.3261 -0.4081,-0.42079 -0.110663,-0.0713 -0.271643,-0.10847 -0.483124,-0.11125 -0.26798,-0.004 -0.496907,0.0402 -0.68797,0.13055 -0.183668,0.11455 -0.406897,0.25981 -0.679023,0.43908 -0.267358,0.22354 -0.481267,0.33213 -0.635805,0.32985 -0.126871,-0.002 -0.284537,-0.1048 -0.473603,-0.31193 -0.169616,-0.22993 -0.235317,-0.65304 -0.211743,-1.29832 0.04453,-0.69656 0.193609,-1.66563 0.403259,-3.15516 0.137937,-0.98001 0.303886,-2.21526 0.453648,-3.65859 0.207303,-1.95803 0.343596,-4.24407 0.348824,-6.81862 0.0048,-2.34767 -0.105882,-4.26026 -0.105882,-4.26026 -0.412459,0.0205 -0.768944,0.14491 -1.071349,0.37194 -0.304322,0.19665 -0.485589,0.2957 -0.540498,0.2982 -0.0967,0.004 -0.164433,-0.0833 -0.204164,-0.26324 -0.04229,-0.21278 -0.08276,-0.61458 -0.131788,-1.22253 -0.02218,-0.39722 -0.107112,-1.22656 -0.107112,-1.22656 -0.05429,-0.57801 -0.08069,-0.95309 -0.0725,-1.13887 0.0049,-0.21381 0.05456,-0.3237 0.150127,-0.32964 0.05447,-0.003 0.249033,0.076 0.5826,0.23894 0.347267,0.16209 0.725563,0.23109 1.134713,0.20583 0.02464,0.0103 0.04091,-0.003 0.04091,-0.003 -0.02972,-0.49346 -0.133704,-1.51245 -0.133704,-1.51245 -0.06143,-0.61002 -0.16756,-1.09507 -0.311906,-1.45227 -0.135162,-0.38904 -0.301841,-0.74447 -0.498759,-1.06602 -0.187951,-0.35305 -0.293972,-0.60386 -0.316932,-0.75492 -0.03668,-0.24132 0.01795,-0.50471 0.162913,-0.7908 0.153757,-0.31756 0.443266,-0.75195 0.864212,-1.30569 0.261671,-0.31579 0.743011,-0.97715 0.743011,-0.97715 0.385597,-0.48995 0.65537,-0.741845 0.814876,-0.756132 0.172574,-0.01546 0.293067,0.155928 0.359123,0.515802 0.06007,0.32727 0.09858,0.90931 0.104018,1.73492 0.01368,0.79721 0.03541,1.48877 0.07011,2.0727 0.03004,0.55334 0.09207,1.12054 0.185434,1.70206 0.142995,0.82264 0.367178,2.43875 0.367178,2.43875 0.364703,-0.0112 1.059498,-0.0678 1.059498,-0.0678 0.407241,-0.0262 0.756056,-0.14216 1.045325,-0.34871 0.302777,-0.20742 0.480402,-0.31339 0.534535,-0.31702 0.09473,-0.006 0.169356,0.0982 0.222898,0.31402 0.04918,0.18253 0.110987,0.57461 0.175634,1.16369 0.05717,0.43199 0.129917,1.26023 0.129917,1.26023 0.05975,0.62006 0.08098,1.04473 0.07167,1.26138 -0.01196,0.1878 -0.06625,0.28405 -0.161949,0.28894 -0.05482,0.003 -0.25323,-0.0806 -0.596465,-0.24942 -0.33205,-0.20053 -0.70331,-0.2894 -1.113614,-0.26785 -0.465036,0.0244 -0.792478,0.0569 -0.981748,0.0976 0.180735,1.62168 0.334536,3.46263 0.417774,5.39941 0.07633,1.77604 0.06789,3.15196 0.06789,3.15196 -0.01525,2.41687 0.271629,3.56142 1.100523,3.55761 0.20971,-9.7e-4 0.448192,-0.086 0.712906,-0.25655 0,0 1.4e-5,-2.2e-4 1.4e-5,-2.2e-4 z"
                id="path7700"
            />
            <path className="letter"
                d="m 95.869393,131.04488 c -0.546143,-0.005 -0.999497,-0.28774 -1.368795,-0.87439 -0.357988,-0.59089 -0.586367,-1.39764 -0.719381,-2.47796 -0.128778,-1.10555 -0.123549,-2.34 -0.0031,-3.71645 0.06393,-0.73035 0.17555,-1.5309 0.327984,-2.4095 0.22521,-1.2339 0.504309,-2.19573 0.881291,-2.87456 0.389512,-0.70695 0.862681,-1.2577 1.433353,-1.64684 0.570542,-0.38904 1.450657,-0.85293 2.63532,-1.40115 0.286098,-0.12459 0.824759,-0.41023 0.824759,-0.41023 0.04019,-0.0338 0.292811,-0.16902 0.759921,-0.41081 0.46628,-0.24143 0.7772,-0.54185 0.93141,-0.90111 0.0828,-0.19572 0.11009,-0.50221 0.0783,-0.919 -0.049,-0.64143 -0.18431,-1.2487 -0.40291,-1.8189 -0.22478,-0.63447 -0.52319,-1.11975 -0.88715,-1.45385 -0.35431,-0.36729 -0.735834,-0.53779 -1.141532,-0.51351 -0.608947,0.0364 -1.093703,0.37139 -1.465172,1.00077 -0.371505,0.62946 -0.525141,1.32308 -0.464359,2.08324 0.01521,0.19018 0.03279,0.33197 0.05359,0.42637 0.02318,0.12604 0.08487,0.31327 0.184217,0.56252 0.09928,0.24905 0.153386,0.45262 0.163134,0.61034 0.03119,0.50473 -0.372495,1.0273 -1.215902,1.55892 -0.343948,0.24357 -1.067999,0.69212 -1.067999,0.69212 -0.135511,0.0666 -0.224098,0.10056 -0.265311,0.10198 -0.165154,0.006 -0.299094,-0.11331 -0.403583,-0.35713 -0.09085,-0.24459 -0.143846,-0.56765 -0.162226,-0.97168 -0.02688,-0.59085 0.01729,-1.29445 0.123385,-2.11782 0.103818,-0.85434 0.258859,-1.66832 0.469144,-2.44176 0.371892,-1.35557 0.856718,-2.40365 1.493501,-3.15094 0.635194,-0.74542 1.341466,-1.14823 2.135892,-1.20375 0.807084,-0.0564 1.622772,0.25602 2.440152,0.94734 0.81599,0.69016 1.53573,1.72153 2.12226,3.09029 0.47241,1.07992 0.84302,2.42047 1.07114,3.99397 0.23846,1.53347 0.39414,3.40844 0.38913,5.51345 0.008,0.92708 -0.0591,2.69952 -0.0591,2.69952 -0.0611,1.44661 -0.14636,2.71885 -0.19529,3.55916 -0.0349,0.85786 -0.0803,1.81383 -0.15022,2.80381 -0.0248,0.5578 -0.0679,0.95367 -0.1165,1.19334 -0.0491,0.24208 -0.13934,0.46767 -0.27038,0.67766 -0.30782,0.44123 -0.63166,0.65129 -0.95056,0.64914 -0.2084,-0.001 -0.5504,-0.14937 -1.02302,-0.45203 -0.34573,-0.25684 -0.68717,-0.448 -1.02482,-0.56907 -0.30965,-0.12089 -0.66639,-0.18309 -1.071783,-0.18579 -0.36347,-0.002 -0.701442,0.0431 -1.016019,0.13577 -0.316648,0.0933 -0.754105,0.25409 -1.32886,0.48136 -0.792962,0.33887 -1.3829,0.50056 -1.743876,0.49707 0,0 -5.9e-5,9e-5 -5.9e-5,9e-5 z m 3.487659,-7.19118 c 1.372478,-0.0112 2.240318,-1.16578 2.361338,-3.62972 0.0293,-0.36803 0.0499,-1.15192 0.0499,-1.15192 0.0272,-0.46396 -0.0668,-0.8509 -0.27771,-1.15677 -0.19788,-0.33777 -0.49035,-0.50084 -0.87454,-0.48898 -0.17851,0.006 -0.36957,0.0583 -0.57391,0.15784 -0.805309,0.33606 -1.41573,0.87945 -1.847901,1.62174 -0.431731,0.71138 -0.661872,1.45229 -0.692378,2.22239 -0.02816,0.71092 0.110408,1.28977 0.426639,1.74851 0.329891,0.45829 0.80408,0.68194 1.428587,0.67684 0,0 -5e-6,7e-5 -5e-6,7e-5 z"
                id="path7702"
            />
            <path className="letter"
                d="m 108.02112,130.96111 c -0.51972,-0.34756 -0.87684,-1.01878 -1.12106,-2.1092 -0.23142,-1.09551 -0.35279,-2.42913 -0.41166,-4.0664 -0.0562,-1.65854 -0.0613,-3.43168 -0.0202,-5.26954 0.0413,-2.56879 0.20165,-4.93368 0.56575,-7.05399 0.36466,-2.12372 0.84721,-3.77355 1.54445,-4.97778 0.68862,-1.22996 1.4825,-1.87354 2.41495,-1.92875 0.76903,-0.0455 1.51719,0.30825 2.22945,1.07003 0.70757,0.72886 1.29594,1.62087 1.75172,2.67435 0.3242,0.75733 0.60579,1.56902 0.84009,2.43223 0.24456,0.82888 0.38587,1.54448 0.43067,2.14316 0.0772,1.03181 -0.12285,1.54997 -0.57338,1.56439 -0.0919,0.0157 -0.30717,0.01 -0.30717,0.01 -0.6143,0.0198 -1.03347,-0.0159 -1.25748,-0.1073 -0.21234,-0.12479 -0.32717,-0.33505 -0.34644,-0.63187 -0.007,-0.10049 0.0107,-0.36229 0.0473,-0.79664 0.034,-0.46571 0.0202,-0.88165 -0.0389,-1.2458 -0.1772,-1.09264 -0.50027,-2.00024 -0.95039,-2.7134 -0.43707,-0.71464 -0.9194,-1.05677 -1.43355,-1.0303 -0.47444,0.0244 -0.90344,0.34673 -1.29622,0.96425 -0.39442,0.62008 -0.6746,1.57419 -0.87984,2.87109 -0.19483,1.26632 -0.23555,2.82944 -0.18051,4.69523 0.0645,2.18655 0.21066,3.85064 0.53379,5.08984 0.32004,1.22738 0.82676,1.81688 1.57477,1.80966 0.0964,-9.3e-4 0.27105,-0.0318 0.52301,-0.093 0.43684,-0.15105 0.75864,-0.43441 0.95887,-0.85564 0.2001,-0.421 0.36852,-0.96855 0.49533,-1.64819 0.12437,-0.55928 0.22983,-0.96419 0.32853,-1.21928 0.0979,-0.25313 0.2622,-0.38296 0.49553,-0.38779 0.3017,-0.006 0.71376,0.22303 1.23041,0.68421 0.26877,0.24324 0.77203,0.68976 0.77203,0.68976 0.52327,0.4554 0.77763,1.43943 0.68812,2.86414 -0.0744,1.18362 -0.36615,2.4159 -0.89204,3.64221 -0.51069,1.22296 -1.09075,2.07775 -1.68055,2.6381 -0.2954,0.28064 -0.59387,0.41631 -0.8845,0.41542 -0.23539,-7.1e-4 -0.55965,-0.13829 -0.96988,-0.42023 -0.16915,-0.11785 -0.34807,-0.22503 -0.53676,-0.32102 -0.18889,-0.0961 -0.37569,-0.13268 -0.56139,-0.10914 -0.29683,0.0232 -0.55198,0.0824 -0.76679,0.17672 -0.21527,0.0945 -0.46451,0.22295 -0.75221,0.38457 -0.41822,0.25285 -0.73711,0.37525 -0.94447,0.37428 -0.1947,-9.1e-4 -0.40151,-0.0696 -0.61952,-0.20804 0,0 1e-4,-2e-4 1e-4,-2e-4 z"
                id="path7704"
            />
            <path className="letter"
                d="m 129.44049,125.62744 c 0.0203,0.55547 0.0857,1.47267 0.15304,2.65295 0.0679,0.80156 0.0635,1.36034 0.006,1.7056 -0.0288,0.17372 -0.0814,0.34508 -0.15775,0.51393 -0.1999,0.43218 -0.45265,0.63865 -0.74176,0.63906 -0.13751,1.9e-4 -0.2944,-0.0573 -0.46985,-0.17382 -0.17571,-0.11672 -0.3441,-0.23472 -0.5052,-0.35396 -0.37122,-0.31125 -0.64745,-0.47129 -0.83182,-0.47094 -0.20103,3.9e-4 -0.55234,0.16168 -1.07231,0.47362 -0.22162,0.11958 -0.45145,0.23777 -0.68952,0.35452 -0.22246,0.11662 -0.41154,0.17415 -0.56431,0.1742 -0.29176,9e-5 -0.44224,-0.21649 -0.46296,-0.67062 0.006,-0.19274 0.0144,-0.32677 0.0275,-0.40089 0.0524,-0.29645 0.18977,-0.70546 0.40563,-1.25555 0.0454,-0.12097 0.15831,-0.4541 0.3084,-0.95955 0.15614,-0.54222 0.31512,-1.18547 0.46714,-1.9362 0.26204,-1.35733 0.39332,-2.64967 0.41828,-3.8066 0.0678,-3.1414 -0.65299,-4.79055 -1.793,-4.76504 -0.51814,0.0116 -0.90476,0.56831 -1.2045,1.64958 -0.28606,1.05177 -0.42905,2.42565 -0.49127,4.09035 -0.0206,0.55197 -0.0262,1.12563 -0.0188,1.71701 0.0339,1.59927 0.10218,2.96556 0.23523,4.13296 0.0489,0.59282 0.0494,0.97753 0.0143,1.17161 -0.0221,0.12236 -0.0698,0.25581 -0.14335,0.39936 -0.20476,0.42874 -0.46043,0.63344 -0.74996,0.63329 -0.13775,-7e-5 -0.29422,-0.0575 -0.46865,-0.17358 -0.17468,-0.11626 -0.34206,-0.23375 -0.50216,-0.35241 -0.36849,-0.30964 -0.64375,-0.46885 -0.8284,-0.46884 -0.20136,1e-5 -0.55494,0.15933 -1.07917,0.46784 -0.0544,0.0254 -0.21948,0.11672 -0.51864,0.28112 -0.27967,0.16219 -0.52155,0.24159 -0.72037,0.24124 -0.30772,-5.3e-4 -0.46359,-0.21603 -0.47961,-0.66657 -0.002,-0.14303 0.006,-0.26372 0.0247,-0.36095 0.0323,-0.17029 0.10122,-0.37872 0.2054,-0.62976 0.10748,-0.27363 0.17745,-0.47171 0.20787,-0.57208 0.32257,-0.79859 0.60313,-1.69078 0.83362,-2.68324 0.2317,-1.01439 0.42584,-2.40441 0.5147,-4.19962 0.17023,-3.42533 0.10058,-7.44532 -0.31926,-11.99142 -0.38056,-4.1208 -0.91802,-7.31014 -0.91802,-7.31014 -0.0958,-0.62206 -0.24694,-1.18818 -0.45094,-1.69862 -0.21028,-0.54289 -0.45931,-1.112255 -0.7475,-1.706147 -0.0553,-0.124061 -0.15116,-0.329698 -0.28478,-0.608114 -0.14076,-0.311311 -0.22802,-0.543942 -0.26138,-0.700777 -0.06,-0.281905 0.009,-0.491304 0.20679,-0.629505 0.20621,-0.170133 0.60222,-0.272937 1.18841,-0.307265 0.35043,-0.0083 1.01579,-0.05844 1.01579,-0.05844 0.57226,-0.03233 0.98939,0.02375 1.24932,0.167581 0.25333,0.112638 0.41036,0.309887 0.47028,0.592843 0.0399,0.188622 0.052,0.427085 0.0356,0.716162 -0.0164,0.290382 -0.0259,0.465629 -0.0281,0.531275 -0.0426,0.613617 -0.064,1.199914 -0.0641,1.755174 0.0151,0.55492 0.0897,1.15897 0.22167,1.81472 0.52495,2.58339 1.04881,5.59546 1.44422,8.84693 0.36258,2.98154 0.50047,5.30774 0.50047,5.30774 0.3302,-0.77163 0.66489,-1.34783 1.02077,-1.72758 0.36792,-0.41263 0.80988,-0.81248 1.32663,-1.19879 0.55964,-0.42134 0.94417,-0.82249 1.154,-1.20243 0.22166,-0.41361 0.29158,-1.08096 0.19435,-1.99863 -0.0648,-0.61189 -0.17317,-1.15478 -0.32153,-1.62694 -0.14823,-0.47173 -0.34817,-1.02827 -0.60198,-1.66411 -0.26955,-0.63672 -0.42668,-1.08569 -0.46665,-1.35572 -0.0448,-0.30267 0.0354,-0.52517 0.24209,-0.66818 0.21657,-0.17703 0.61283,-0.27676 1.18942,-0.29798 0.35314,6e-5 1.02505,-0.0368 1.02505,-0.0368 0.57738,-0.0202 0.9836,0.0339 1.21706,0.16158 0.24357,0.0934 0.38587,0.27515 0.42563,0.54528 0.0298,0.20213 0.006,0.56021 -0.076,1.073 -0.0887,0.68355 -0.14701,1.35152 -0.17481,2.00174 -0.0319,0.61673 0.0198,1.33302 0.14873,2.15104 0.14966,1.02206 0.1233,1.87717 -0.0666,2.56183 -0.17483,0.68451 -0.46576,1.1316 -0.86152,1.34348 0.37034,0.56589 0.69745,1.35226 0.96402,2.34727 0.26648,0.99459 0.47571,2.09815 0.61336,3.28962 0.14811,1.12338 0.35039,2.98253 0.46082,5.18222 0,0 -1.4e-4,9e-5 -1.4e-4,9e-5 z"
                id="path7706"
            />
            <path className="letter"
                d="m 137.85977,130.46236 c -0.003,-0.14599 0.003,-0.26935 0.0186,-0.3688 0.0274,-0.17417 0.0875,-0.38765 0.17901,-0.64505 0.0943,-0.28058 0.15569,-0.48377 0.18227,-0.58679 0.28389,-0.81951 0.53045,-1.73647 0.73234,-2.75698 0.20275,-1.04251 0.37094,-2.47394 0.4435,-4.3219 0.13959,-3.52574 0.0643,-7.66898 -0.33171,-12.32674 -0.35903,-4.22318 -0.85881,-7.46583 -0.85881,-7.46583 -0.0783,-0.56625 -0.19345,-1.07849 -0.34391,-1.53761 -0.15609,-0.491862 -0.354,-1.046341 -0.59478,-1.658632 -0.27538,-0.645271 -0.4421,-1.104438 -0.49815,-1.391996 -0.0744,-0.381796 0.006,-0.652069 0.24306,-0.813608 0.24463,-0.19302 0.72793,-0.294473 1.4504,-0.302621 1.16437,-0.001 3.4759,-0.02555 3.4759,-0.02555 1.17196,0.0081 3.49802,0.0016 3.49802,0.0016 0.35845,0.0015 0.60029,0.331025 0.71992,0.996925 0.0856,0.476236 0.0968,1.067687 0.0317,1.779586 -0.0309,0.323968 -0.003,0.746101 0.0816,1.271341 0.15887,0.98715 0.53416,2.22638 1.10571,3.74947 0.75951,1.98972 1.42068,4.38083 1.90808,7.13381 0.48778,2.75516 0.73388,5.47538 0.7404,8.08328 0.006,2.50598 -0.21931,4.69121 -0.62784,6.54014 -0.3925,1.81884 -0.95936,3.11323 -1.63304,3.99821 -0.40736,0.55563 -0.76245,0.93065 -1.04493,1.14346 -0.28382,0.21381 -0.5392,0.31877 -0.75939,0.31998 -0.15181,8.3e-4 -0.30962,-0.0444 -0.47258,-0.13683 -0.14927,-0.0925 -0.31063,-0.19765 -0.48386,-0.31582 -0.53656,-0.35644 -0.94174,-0.59986 -1.22925,-0.72381 -0.15453,-0.0517 -0.48934,-0.18472 -0.48934,-0.18472 -0.24102,-0.0489 -0.4509,-0.0729 -0.63031,-0.072 -0.11054,6e-4 -0.32073,0.027 -0.63183,0.0788 -0.3762,0.10308 -0.86309,0.30457 -1.4798,0.59971 -0.35942,0.17147 -0.73174,0.3282 -1.11643,0.47105 -0.37026,0.14255 -0.66827,0.21304 -0.88869,0.21388 -0.44317,0.002 -0.67098,-0.23811 -0.69572,-0.74594 0,0 -6e-5,2e-5 -6e-5,2e-5 z m 6.5494,-7.71945 c 0.79404,-0.005 1.41237,-0.64924 1.79593,-1.97702 0.38044,-1.317 0.57311,-3.54292 0.40037,-6.68483 -0.0523,-0.95223 -0.11359,-1.72246 -0.16804,-2.26653 -0.45925,-4.66287 -1.30924,-7.93017 -2.13157,-9.62052 -0.82729,-1.72962 -1.61965,-2.704336 -2.31258,-2.959352 -0.18147,-0.0641 -0.32191,-0.09578 -0.42106,-0.09521 -0.38314,0.0022 -0.61261,0.37672 -0.69545,1.132502 -0.07,0.76918 0.079,2.11431 0.39536,4.15853 0.51753,3.27012 0.98107,7.03954 1.23095,11.06369 0.22851,3.67995 0.19242,6.40565 0.19242,6.40565 0.51108,0.56952 1.08022,0.84751 1.71359,0.84318 0,0 8e-5,-9e-5 8e-5,-9e-5 z"
                id="path7708"
            />
            <path className="letter"
                d="m 161.08639,120.89598 c 0.57742,0.6028 0.84281,1.66491 0.75774,3.11513 -0.073,1.24386 -0.37914,2.53008 -0.92268,3.8085 -0.53961,1.24617 -1.14313,2.12988 -1.77892,2.72482 -0.33151,0.29749 -0.63909,0.44309 -0.91353,0.44543 -0.1652,0.001 -0.33656,-0.0493 -0.51304,-0.1534 -0.17669,-0.10418 -0.34462,-0.2227 -0.50386,-0.35631 -0.43837,-0.40292 -0.82691,-0.61075 -1.17267,-0.60797 -0.22049,0.002 -0.42032,0.0593 -0.60117,0.17146 -0.16747,0.11235 -0.36182,0.27826 -0.58753,0.49592 -0.14409,0.13566 -0.29165,0.24307 -0.44184,0.32338 -0.14048,0.10654 -0.28028,0.15974 -0.4179,0.16077 -0.15126,0.001 -0.33907,-0.0756 -0.56167,-0.23284 -0.71166,-0.55185 -1.16097,-1.76481 -1.46363,-3.97649 -0.30264,-2.21167 -0.42742,-4.87156 -0.44118,-7.92139 -0.003,-0.74677 -0.006,-1.28192 1.4e-4,-1.66629 0.0797,-5.1878 0.23196,-8.97767 0.95362,-11.59764 0.71317,-2.59065 1.76626,-3.95571 3.23966,-4.18048 0.13875,-0.003 0.38047,-0.0467 0.38047,-0.0467 1.40954,0.0304 2.82746,1.49699 4.04688,4.46915 0.40915,1.0164 0.76214,2.24548 1.04017,3.68204 0.29221,1.43698 0.45415,2.77951 0.49623,4.01809 0.0331,0.97535 -0.0214,1.75999 -0.15155,2.35256 -0.11691,0.55612 -0.30406,0.83191 -0.55413,0.83019 -0.0944,0.0122 -0.31333,-0.002 -0.31333,-0.002 -0.25488,-0.0259 -0.79491,-0.11629 -0.79491,-0.11629 -0.22321,-0.0385 -0.48828,-0.0772 -0.79505,-0.11605 -0.29287,-0.0389 -0.6203,-0.0594 -0.9821,-0.0613 -0.79402,-0.004 -1.48342,0.21677 -2.07444,0.66138 -0.5937,0.40889 -1.1254,1.18491 -1.62963,2.31853 0.17384,1.46026 0.42107,2.58463 0.77478,3.41794 0.35331,0.79453 0.7987,1.17961 1.34993,1.17713 0.55005,-0.002 0.94385,-0.24029 1.17282,-0.72053 0.22881,-0.47987 0.4249,-1.17495 0.5734,-2.09645 0.11389,-0.64066 0.22423,-1.12426 0.33974,-1.45076 0.11512,-0.32537 0.28906,-0.48869 0.52493,-0.48823 0.26349,5.2e-4 0.66301,0.27437 1.19375,0.81458 -0.0364,-0.038 0.8069,0.84223 0.7705,0.80419 z m -6.96174,-4.62058 c 0.63841,-1.19981 1.30229,-2.02549 2.02592,-2.47578 0.71974,-0.48669 1.53096,-0.76301 2.4391,-0.82908 0.40131,-0.10903 0.57822,-0.80505 0.50092,-2.09231 -0.0295,-0.49206 -0.0796,-0.92808 -0.14854,-1.30708 -0.22275,-1.36407 -0.58044,-2.42648 -1.05009,-3.18512 -0.45932,-0.79642 -0.98178,-1.19863 -1.55029,-1.20867 -0.52759,-0.009 -0.97133,0.39443 -1.34025,1.21779 -0.36018,0.78926 -0.60679,1.91564 -0.77284,3.40162 -0.16591,1.48456 -0.20392,3.17776 -0.14766,5.0686 0.0175,0.47177 0.0321,0.94186 0.0437,1.41003 z"
                id="path7710"
            />
            <path className="letter"
                d="m 164.61752,130.93041 c -0.19286,0.002 -0.35074,-0.0487 -0.47297,-0.15307 -0.12623,-0.078 -0.22111,-0.2747 -0.28651,-0.60207 -0.0491,-0.24546 -0.0576,-0.4961 -0.0256,-0.75158 0.0184,-0.14722 0.0854,-0.46371 0.20057,-1.00126 0.20483,-0.97731 0.33902,-1.92014 0.4072,-2.7913 0.10554,-1.34858 0.10807,-3.06707 -0.0401,-5.15653 -0.1574,-2.17501 -0.40602,-4.7468 -0.78589,-7.57456 -0.34786,-2.58948 -0.71431,-4.66416 -0.71431,-4.66416 -0.16912,-0.97662 -0.48431,-2.14678 -0.95956,-3.49101 -0.0377,-0.10679 -0.13874,-0.37908 -0.29421,-0.78378 -0.147,-0.44663 -0.238,-0.81574 -0.27117,-1.10971 -0.0456,-0.40398 0.0494,-0.69231 0.28785,-0.86679 0.23829,-0.17444 0.68253,-0.2511 1.33327,-0.2295 0.12026,0.0166 0.3254,0.0109 0.3254,0.0109 0.70863,0.0239 1.19933,0.15003 1.46896,0.37664 0.26583,0.19044 0.42416,0.5221 0.47256,0.99722 0.0222,0.21786 0.0343,0.62238 0.032,1.20813 -0.004,1.03023 0.0101,1.82405 0.0532,2.38425 0.0372,0.484 0.0962,1.00656 0.17553,1.5684 1.11786,6.89364 1.42475,10.25152 1.77252,10.25405 0.22258,0.002 0.48759,-0.98037 0.72819,-3.00075 0.24084,-2.06095 0.43944,-4.45661 0.55437,-7.16745 0.0106,-0.55579 0,-1.05599 -0.0303,-1.49989 -0.0377,-0.5521 -0.14545,-1.35425 -0.33366,-2.38179 -0.11289,-0.4795 -0.18576,-0.88187 -0.2167,-1.20992 -0.0446,-0.47351 0.0436,-0.8125 0.26845,-1.01947 0.23912,-0.20622 0.71431,-0.29414 1.42599,-0.26331 0.12054,0.0177 0.32679,0.0142 0.32679,0.0142 0.65346,0.0286 1.12027,0.13933 1.39803,0.33075 0.27794,0.19156 0.43445,0.48503 0.46829,0.88228 0.0246,0.2889 -0.003,0.64828 -0.0848,1.07956 -0.0692,0.39187 -0.11674,0.65232 -0.1368,0.75685 -0.24935,1.29933 -0.4034,2.43694 -0.45448,3.39304 -0.10939,2.26022 -0.2945,4.86201 -0.58298,7.59474 -0.26494,2.50969 -0.54923,4.42963 -0.54923,4.42963 -0.28752,2.07873 -0.50323,3.75503 -0.61468,5.10766 -0.0712,0.86411 -0.11107,1.80108 -0.12286,2.77137 -0.004,0.52672 -0.0169,0.85619 -0.034,0.99564 -0.0313,0.25467 -0.10462,0.50558 -0.21989,0.75242 -0.15335,0.3284 -0.3063,0.52878 -0.45493,0.60953 -0.15264,0.10729 -0.32601,0.16149 -0.51884,0.16362 -0.15156,0.002 -0.28393,-0.0361 -0.3966,-0.11383 -0.0989,-0.0779 -0.20427,-0.20919 -0.31602,-0.39655 -0.15339,-0.1873 -0.29137,-0.33638 -0.41481,-0.44558 -0.10958,-0.1093 -0.2675,-0.16339 -0.47417,-0.16124 -0.19299,0.002 -0.36508,0.0595 -0.51754,0.1716 -0.13923,0.11238 -0.30951,0.26398 -0.51556,0.45554 -0.16382,0.19022 -0.31436,0.32433 -0.44972,0.4047 -0.12169,0.0802 -0.2587,0.12083 -0.41021,0.12236 0,0 8e-5,0 8e-5,0 z"
                id="path7712"
            />
            <path className="letter"
                d="m 181.87606,120.95863 c 0.56,0.57739 0.79103,1.58767 0.6744,2.97739 -0.10007,1.19239 -0.42538,2.43132 -0.97332,3.67959 -0.54408,1.21717 -1.13601,2.0946 -1.76188,2.69135 -0.32655,0.29842 -0.63017,0.44614 -0.90523,0.45008 -0.16536,0.002 -0.33808,-0.0475 -0.51705,-0.15048 -0.17915,-0.10309 -0.34968,-0.22041 -0.51152,-0.35257 -0.44584,-0.39846 -0.8373,-0.60206 -1.18336,-0.59749 -0.22067,0.003 -0.42011,0.0609 -0.59953,0.17323 -0.16588,0.1123 -0.3582,0.27837 -0.57983,0.49648 -0.14167,0.13606 -0.287,0.24418 -0.43554,0.32533 -0.13823,0.10736 -0.27674,0.16144 -0.4145,0.16322 -0.15137,0.002 -0.34122,-0.0739 -0.56752,-0.22997 -0.7291,-0.55147 -1.20098,-1.75903 -1.49002,-3.92018 -0.28905,-2.16126 -0.36077,-4.74493 -0.27324,-7.69452 0.0213,-0.7174 0.0381,-1.24301 0.0587,-1.60965 0.27095,-4.98011 0.64541,-8.67673 1.51657,-11.15619 0.86933,-2.47544 2.02608,-3.75623 3.5344,-3.92295 0.14092,0.002 0.38872,-0.0322 0.38872,-0.0322 1.43025,0.0769 2.76674,1.5373 3.81891,4.40621 0.35203,0.98125 0.63478,2.15858 0.83456,3.52937 0.21389,1.3708 0.30604,2.64682 0.28717,3.82148 -0.0149,0.92519 -0.10576,1.66833 -0.26286,2.22911 -0.14216,0.52629 -0.34137,0.78645 -0.59233,0.78235 -0.0952,0.0107 -0.31436,-0.005 -0.31436,-0.005 -0.25462,-0.0271 -0.79301,-0.11877 -0.79301,-0.11877 -0.22248,-0.039 -0.48702,-0.0787 -0.79357,-0.11913 -0.29256,-0.0403 -0.62073,-0.0636 -0.98431,-0.0696 -0.79797,-0.0132 -1.50093,0.18903 -2.11331,0.60812 -0.61307,0.3845 -1.17953,1.12337 -1.72437,2.20946 0.12563,1.40612 0.34408,2.49233 0.67889,3.2972 0.33629,0.76971 0.77547,1.1405 1.32793,1.13845 0.5517,-0.002 0.95092,-0.23153 1.19175,-0.69337 0.24074,-0.46167 0.45466,-1.12878 0.63172,-2.01109 0.13368,-0.61278 0.26115,-1.07543 0.38823,-1.38634 0.12681,-0.31025 0.30746,-0.46492 0.54412,-0.46288 0.26458,0.002 0.65515,0.26636 1.16885,0.78412 0.24954,0.25842 0.49809,0.5151 0.74571,0.76996 z m -6.82275,-4.47932 c 0.69174,-1.14351 1.39979,-1.92392 2.14948,-2.34222 0.74801,-0.45349 1.57884,-0.70266 2.49605,-0.75019 0.40714,-0.0966 0.62097,-0.75732 0.61125,-1.98396 -0.004,-0.4693 -0.0306,-0.88569 -0.0792,-1.2485 -0.14981,-1.30529 -0.44877,-2.32807 -0.87906,-3.06667 -0.41753,-0.77416 -0.9216,-1.17509 -1.49649,-1.20141 -0.53329,-0.0244 -1.00671,0.34982 -1.42708,1.13006 -0.40923,0.74713 -0.72225,1.82325 -0.96737,3.24528 -0.24478,1.42014 -0.36664,3.04714 -0.3922,4.86266 -0.003,0.45333 -0.008,0.90501 -0.0153,1.35495 z"
                id="path7714"
            />
            <path className="letter"
                d="m 187.84337,129.99789 c -0.16258,0.43737 -0.37626,0.65176 -0.63855,0.65627 -0.1243,0.002 -0.26948,-0.0542 -0.4344,-0.17002 -0.16508,-0.11595 -0.32314,-0.23294 -0.47423,-0.35096 -0.34946,-0.30843 -0.60459,-0.46488 -0.77126,-0.46214 -0.18079,0.003 -0.49465,0.16873 -0.94924,0.4906 -0.0462,0.0259 -0.19279,0.12299 -0.45052,0.295 -0.24179,0.17043 -0.45346,0.25599 -0.63286,0.25884 -0.2765,0.004 -0.43441,-0.21343 -0.47376,-0.67436 -0.009,-0.1456 -0.008,-0.26841 0.004,-0.36725 0.0211,-0.17307 0.0742,-0.38521 0.15934,-0.63934 0.0878,-0.27846 0.14505,-0.47478 0.17038,-0.57715 0.27083,-0.80311 0.51813,-1.69066 0.73761,-2.66469 0.22058,-0.99452 0.42982,-2.3515 0.59602,-4.07821 0.31593,-3.27049 0.57477,-7.14439 0.65159,-11.43767 0.07,-3.91404 -0.041,-6.97327 -0.041,-6.97327 -0.0161,-0.59603 -0.0912,-1.14563 -0.22454,-1.6501 -0.1353,-0.53555 -0.30498,-1.10203 -0.51027,-1.697678 -0.0381,-0.12369 -0.10552,-0.329925 -0.20052,-0.609392 -0.0979,-0.311688 -0.1539,-0.5427 -0.16681,-0.695369 -0.0232,-0.274433 0.0698,-0.464151 0.28038,-0.570177 0.22255,-0.13528 0.62155,-0.1826 1.19637,-0.14208 0.34326,0.03579 0.99434,0.07053 0.99434,0.07053 0.55941,0.03992 0.95563,0.143417 1.18769,0.309858 0.22985,0.136371 0.3549,0.340119 0.37481,0.612459 0.0133,0.181533 -0.007,0.406239 -0.0614,0.674934 -0.0545,0.269671 -0.087,0.432894 -0.0978,0.493854 -0.12258,0.56922 -0.22036,1.11441 -0.29294,1.63319 -0.0581,0.51997 -0.0649,1.09207 -0.0228,1.71739 0.23622,3.46034 0.36326,7.31439 0.30653,11.55593 -0.0514,3.84233 -0.23305,6.71045 -0.23305,6.71045 -0.0918,1.72906 -0.13589,3.03454 -0.1111,4.03752 0.0272,0.96422 0.0887,1.85308 0.18842,2.67147 0.0569,0.58736 0.0737,0.96972 0.0502,1.16687 -0.0146,0.12324 -0.0514,0.25833 -0.11035,0.40465 0,0 -1.3e-4,4e-5 -1.3e-4,4e-5 z"
                id="path7716"
            />
            <path className="letter"
                d="m 191.1134,130.40283 c -0.77823,-0.4798 -1.24762,-1.57626 -1.4231,-3.48731 -0.15969,-1.95965 -0.10165,-4.39972 0.10155,-7.43638 0.0714,-1.06637 0.15566,-2.17133 0.2499,-3.30152 0.26579,-3.01965 0.61471,-5.79231 1.09476,-8.21032 0.49677,-2.43038 1.05364,-4.2615 1.74834,-5.56139 0.68978,-1.29072 1.42181,-1.89323 2.21047,-1.83602 0.7844,0.0569 1.57956,0.77052 2.33646,2.1427 0.757,1.37235 1.3898,3.25968 1.83987,5.65763 0.46565,2.36694 0.68493,5.03565 0.64176,7.98657 -0.0163,0.87146 -0.0603,1.75336 -0.13124,2.64399 -0.23199,2.91287 -0.70993,5.41871 -1.36327,7.47916 -0.65448,2.06402 -1.43074,3.28426 -2.32008,3.82372 -0.14644,0.0901 -0.28826,0.13636 -0.42499,0.13919 -0.23226,0.005 -0.45416,-0.0915 -0.66318,-0.29141 -0.19656,-0.20142 -0.31103,-0.31603 -0.34963,-0.34556 -0.33987,-0.37851 -0.61602,-0.57001 -0.83558,-0.56566 -0.13683,0.003 -0.32258,0.0819 -0.55862,0.23649 -0.22456,0.18328 -0.36163,0.29096 -0.40501,0.32076 -0.22553,0.18214 -0.46143,0.33331 -0.70748,0.45464 -0.24925,0.15045 -0.47026,0.22677 -0.66151,0.2304 -0.17778,0.003 -0.30438,-0.0231 -0.37956,-0.0796 0,0 1.4e-4,-4e-5 1.4e-4,-4e-5 z m 2.13077,-10.7903 c 0.0773,0.25465 0.17035,0.38147 0.28003,0.38196 0.0684,3e-4 0.20993,-0.14356 0.42339,-0.43223 0.18349,-0.25281 0.33357,-0.43333 0.45128,-0.54167 0.12026,-0.14463 0.26252,-0.21624 0.42719,-0.21486 0.24697,0.002 0.50441,0.24114 0.77006,0.71154 0.0246,0.0363 0.0724,0.12662 0.1434,0.27061 0.0874,0.10806 0.17207,0.16204 0.25418,0.16232 0.0957,3.2e-4 0.21,-0.14248 0.3418,-0.42922 0.27977,-0.60869 0.51278,-1.4216 0.68932,-2.44217 0.19264,-1.05678 0.32328,-2.23664 0.3818,-3.53501 0.0703,-1.55977 0.0265,-3.07556 -0.13196,-4.54251 -0.15839,-1.46636 -0.4274,-2.67696 -0.78918,-3.6293 -0.36177,-0.95235 -0.79364,-1.44421 -1.27454,-1.47485 -0.73731,-0.047 -1.28706,0.86413 -1.6941,2.76895 -0.40751,1.86782 -0.63029,4.07017 -0.71463,6.57156 -0.0446,1.32447 -0.0339,2.56717 0.038,3.72158 0.0741,1.11878 0.20476,1.9969 0.40395,2.6533 z"
                id="path7718"
            />
            <path className="letter"
                d="m 211.12163,121.56677 c 0.007,0.51764 -0.0179,1.07251 -0.0739,1.66307 -0.13978,1.47475 -0.44655,2.73464 -0.91717,3.79186 -0.47095,1.05797 -1.03326,1.8523 -1.69033,2.40673 -0.65606,0.5536 -1.3254,0.83274 -2.00254,0.85038 -1.25463,0.0327 -2.21847,-0.84436 -2.82082,-2.77804 -0.004,0.2023 -0.0389,0.57145 -0.0389,0.57145 -0.11154,1.46968 -0.13869,2.55947 -0.0884,3.36851 0.0478,0.82722 0.14466,1.5714 0.29199,2.24551 0.0912,0.48522 0.13631,0.79557 0.12721,0.95869 -0.006,0.10091 -0.0325,0.21128 -0.0803,0.33034 -0.1293,0.35602 -0.32448,0.52673 -0.5909,0.52673 -0.12594,0 -0.27857,-0.0477 -0.45604,-0.14306 -0.17784,-0.0959 -0.34803,-0.19199 -0.51076,-0.28856 -0.37911,-0.2518 -0.64785,-0.37894 -0.81672,-0.37776 -0.18327,0.001 -0.489,0.13284 -0.92547,0.38457 -0.0458,0.0206 -0.18494,0.0955 -0.43324,0.22893 -0.23129,0.13161 -0.43831,0.19587 -0.62028,0.19587 -0.2794,0 -0.46118,-0.17288 -0.534,-0.53259 -0.0202,-0.11421 -0.0272,-0.2108 -0.0215,-0.2885 0.01,-0.13611 0.0513,-0.31294 0.125,-0.53484 0.0721,-0.2018 0.11922,-0.34648 0.14021,-0.42921 0.23566,-0.64137 0.45755,-1.37192 0.66524,-2.19667 0.20391,-0.79613 0.40587,-1.91029 0.60418,-3.37383 0.36524,-2.68719 0.83422,-6.2401 1.21724,-10.07215 0.35714,-3.57303 0.53536,-6.50838 0.53536,-6.50838 0.0376,-0.56904 0.0148,-1.09578 -0.0676,-1.5805 -0.0814,-0.51462 -0.19267,-1.06181 -0.33496,-1.64079 -0.0253,-0.12056 -0.0709,-0.32083 -0.13634,-0.5941 -0.0652,-0.30467 -0.0975,-0.53193 -0.0958,-0.6825 0.003,-0.27082 0.1102,-0.46035 0.32222,-0.56875 0.22637,-0.1377 0.61341,-0.19068 1.16069,-0.16015 0.32589,0.0297 0.94564,0.0525 0.94564,0.0525 0.53158,0.0294 0.90063,0.12391 1.10735,0.28329 0.20725,0.12976 0.30841,0.32771 0.30308,0.59428 -0.004,0.2069 -0.0889,0.60382 -0.2577,1.18968 -0.15344,0.52775 -0.2802,1.01311 -0.37931,1.45542 -0.0981,0.41267 -0.1649,0.88616 -0.20224,1.42013 0.59361,-1.4984 1.24651,-2.5785 1.98756,-3.25412 0.75306,-0.67332 1.51413,-0.98556 2.28547,-0.94756 0.74311,0.0366 1.38655,0.47635 1.91834,1.31029 0.54591,0.80475 0.78211,2.08588 0.68318,3.83714 -0.18209,3.22335 -0.31462,6.39445 -0.32459,9.28666 0,0 -2.2e-4,2e-5 -2.2e-4,2e-5 z m -5.43014,3.18279 c 0.64598,-0.0401 1.23377,-0.79468 1.74696,-2.30285 0.52734,-1.50978 0.88075,-3.26286 1.03731,-5.25698 0.12997,-1.65558 0.0814,-3.08823 -0.13757,-4.28795 -0.2053,-1.19939 -0.56532,-1.81359 -1.05943,-1.8301 -0.37188,-0.0124 -0.76303,0.26825 -1.17817,0.84556 -0.41553,0.57784 -0.78649,1.34897 -1.12165,2.31414 -0.32104,0.96444 -0.53446,1.97399 -0.64141,3.01873 -0.0423,1.05336 -0.17102,3.0577 -0.17102,3.0577 -0.0326,1.13418 0.10002,2.17681 0.40321,3.12692 0.31884,0.92026 0.69387,1.35035 1.12179,1.31483 0,0 -2e-5,0 -2e-5,0 z"
                id="path7720"
            />
            <path className="letter"
                d="m 221.96322,121.60191 c 0.54514,0.42668 0.78294,1.20356 0.71135,2.31972 -0.0616,0.95997 -0.32825,1.98581 -0.80417,3.06911 -0.47426,1.05772 -1.00187,1.8621 -1.58556,2.42623 -0.30549,0.28242 -0.59699,0.42717 -0.8735,0.43664 -0.16592,0.006 -0.343,-0.0373 -0.53053,-0.12891 -0.18757,-0.0917 -0.36726,-0.19596 -0.53887,-0.31301 -0.47376,-0.35279 -0.87986,-0.52424 -1.22517,-0.51225 -0.22068,0.008 -0.41725,0.0639 -0.58999,0.16838 -0.15899,0.10404 -0.34204,0.25779 -0.54957,0.46045 -0.13309,0.12671 -0.27136,0.22869 -0.41482,0.30626 -0.13135,0.1015 -0.26627,0.15423 -0.40459,0.15857 -0.15203,0.005 -0.34776,-0.0618 -0.5857,-0.20017 -0.76423,-0.48675 -1.32553,-1.5753 -1.65553,-3.35353 -0.33106,-1.78387 -0.37879,-3.80796 -0.17837,-6.08741 0.0482,-0.54866 0.0903,-0.96243 0.12737,-1.23935 0.49585,-3.77423 1.23219,-6.68829 2.26239,-8.58572 1.04946,-1.93363 2.2482,-2.95327 3.6453,-3.10326 0.1284,0.001 0.35732,-0.0302 0.35732,-0.0302 1.30383,0.0424 2.34481,1.17076 3.10504,3.33883 0.25257,0.74081 0.43766,1.62748 0.55299,2.65774 0.12828,1.02966 0.166,1.98765 0.11367,2.87515 -0.0412,0.69946 -0.14163,1.26401 -0.3006,1.69581 -0.14403,0.40458 -0.33598,0.6102 -0.57449,0.61674 -0.0906,0.0128 -0.29832,0.008 -0.29832,0.008 -0.24133,-0.01 -0.7513,-0.061 -0.7513,-0.061 -0.21083,-0.0217 -0.46147,-0.0425 -0.75251,-0.0628 -0.27764,-0.0207 -0.58981,-0.0275 -0.93676,-0.0204 -0.76105,0.0155 -1.44166,0.18972 -2.04506,0.52674 -0.60141,0.30989 -1.17795,0.89084 -1.73645,1.74101 0.0839,1.0794 0.28676,1.92326 0.6129,2.54723 0.32772,0.59625 0.76598,0.88143 1.30955,0.86309 0.54373,-0.0183 0.93213,-0.21435 1.16434,-0.58817 0.23231,-0.374 0.43603,-0.90545 0.61068,-1.59818 0.13135,-0.48017 0.2596,-0.84277 0.38518,-1.08593 0.12563,-0.24324 0.30206,-0.36816 0.52981,-0.37485 0.25498,-0.007 0.62737,0.18131 1.12184,0.56157 0.24038,0.19025 0.481,0.37947 0.72213,0.56789 z m -6.48643,-3.2214 c 0.7174,-0.88839 1.43735,-1.49958 2.16952,-1.836 0.73376,-0.36374 1.53138,-0.57521 2.39573,-0.63959 0.38892,-0.0861 0.61368,-0.59222 0.66918,-1.52069 0.0212,-0.35534 0.0198,-0.67018 -0.004,-0.94416 -0.0622,-0.98624 -0.26573,-1.75914 -0.60602,-2.31566 -0.32596,-0.58426 -0.75351,-0.88396 -1.28124,-0.89409 -0.48888,-0.009 -0.95902,0.28741 -1.41601,0.89581 -0.44257,0.58104 -0.82729,1.41606 -1.16345,2.50609 -0.33562,1.08821 -0.563,2.33297 -0.68258,3.71468 -0.0266,0.34552 -0.0536,0.68996 -0.0811,1.03361 z"
                id="path7722"
            />
            <path className="letter"
                d="m 233.4591,113.03073 c 0.0979,0.4203 0.14755,0.75259 0.14755,0.99881 0,0.26839 -0.062,0.51777 -0.18698,0.74868 -0.12511,0.20814 -0.33849,0.45546 -0.6424,0.74099 -0.20599,0.21133 -0.65018,0.6073 -0.65018,0.6073 -0.4361,0.40501 -0.72193,0.61108 -0.84995,0.6177 -0.0896,0.005 -0.13236,-0.10566 -0.12815,-0.33092 0.0201,-0.24974 0.0336,-0.77836 0.0336,-0.77836 0.006,-0.31552 -0.0144,-0.60756 -0.0601,-0.876 -0.0575,-0.31298 -0.1538,-0.55715 -0.28884,-0.73228 -0.12247,-0.17568 -0.27795,-0.26011 -0.46717,-0.25299 -0.13881,0.005 -0.24671,0.0318 -0.3237,0.0798 -0.33275,0.17083 -0.6665,0.57942 -1.00641,1.22805 -0.33975,0.6483 -0.64026,1.51235 -0.90261,2.58875 -0.24817,1.05199 -0.40292,2.22615 -0.4559,3.50873 -0.0195,0.47311 -0.0276,0.83163 -0.0242,1.07811 0.0156,1.2553 0.0637,2.26041 0.14438,3.03395 0.095,0.74895 0.22031,1.48152 0.37747,2.20012 0.10744,0.54535 0.16008,0.90334 0.15531,1.07955 -0.004,0.13166 -0.0278,0.26413 -0.0729,0.39733 -0.12146,0.39902 -0.31435,0.60282 -0.57887,0.61353 -0.12527,0.005 -0.27701,-0.0433 -0.45466,-0.14477 -0.17767,-0.10153 -0.34807,-0.20324 -0.51126,-0.30518 -0.3798,-0.26695 -0.65162,-0.39678 -0.8181,-0.38977 -0.18069,0.008 -0.48365,0.16181 -0.91224,0.46023 -0.0432,0.0237 -0.18433,0.1152 -0.42769,0.27587 -0.22874,0.15968 -0.43394,0.24252 -0.61496,0.24931 -0.27845,0.0104 -0.45821,-0.1865 -0.53623,-0.59233 -0.0197,-0.17146 -0.0278,-0.2901 -0.0246,-0.35494 0.009,-0.19505 0.09,-0.56516 0.24252,-1.11658 0.20074,-0.68404 0.37719,-1.41652 0.52941,-2.19751 0.16684,-0.80245 0.31955,-1.82442 0.45725,-3.06562 0.27799,-2.47574 0.78189,-7.55442 0.78189,-7.55442 0.048,-0.46238 0.035,-0.88964 -0.0379,-1.28184 -0.06,-0.39246 -0.158,-0.80848 -0.29404,-1.24872 -0.13606,-0.44031 -0.2009,-0.74318 -0.19419,-0.90634 0.009,-0.20988 0.11147,-0.36167 0.3081,-0.45545 0.2106,-0.11725 0.55918,-0.17611 1.04491,-0.1791 0.29688,0.009 0.85991,-0.007 0.85991,-0.007 0.48258,-0.005 0.80914,0.0486 0.98255,0.16087 0.18661,0.0891 0.27699,0.23655 0.27095,0.44282 -0.004,0.13749 -0.0407,0.31001 -0.11029,0.51749 -0.0699,0.20836 -0.11152,0.33362 -0.12593,0.38054 -0.15353,0.43853 -0.28239,0.85381 -0.38585,1.24578 -0.0898,0.36861 -0.13135,0.7935 -0.12392,1.27323 0.0166,0.47899 0.0228,1.40269 0.0228,1.40269 0.41826,-1.72475 0.98586,-3.06625 1.70269,-4.01874 0.71787,-0.97589 1.47436,-1.45661 2.2857,-1.45879 0.87033,-0.004 1.48404,0.77105 1.86351,2.31687 7e-5,6e-5 -1.8e-4,2.2e-4 -1.8e-4,2.2e-4 z"
                id="path7724"
            />
            <path className="letter"
                d="m 47.23675,89.675385 c 0.148494,1.437247 0.298008,2.6933 0.438928,3.706917 0.156957,1.023914 0.251144,1.65654 0.285177,1.900164 0.131185,0.915692 0.200751,1.446519 0.21079,1.579759 0.03055,0.405516 0.01819,0.743615 -0.03707,1.014133 -0.08455,0.486897 -0.255787,0.729885 -0.511188,0.729332 -0.195355,-4.22e-4 -0.516216,-0.190314 -0.962035,-0.569126 -0.159201,-0.135287 -0.3259,-0.270566 -0.500104,-0.40586 -0.157446,-0.108324 -0.288934,-0.162798 -0.394592,-0.163508 -0.181637,-0.0012 -0.471035,0.184637 -0.876933,0.554384 -0.129679,0.1322 -0.268235,0.250596 -0.415647,0.355172 -0.146023,0.131351 -0.273163,0.19588 -0.380538,0.193974 -0.245751,-0.0044 -0.434422,-0.261521 -0.566185,-0.770031 -0.920308,-2.947961 -2.050583,-6.521651 -3.120529,-10.093651 -0.999791,-3.337783 -1.728903,-5.975622 -1.728903,-5.975622 0.147411,2.661095 0.459321,7.982866 0.459321,7.982866 0.09504,1.525305 0.226448,2.764376 0.395432,3.715612 0.16816,0.925169 0.366375,1.799246 0.595123,2.623133 0.01901,0.105946 0.06434,0.305028 0.136082,0.597202 0.0709,0.265839 0.109444,0.49121 0.115414,0.67606 0.0034,0.105573 -0.008,0.237176 -0.03426,0.394546 -0.09379,0.498123 -0.298842,0.741144 -0.614351,0.729271 -0.20503,-0.0077 -0.444473,-0.109125 -0.717745,-0.303867 -0.257453,-0.194098 -0.410126,-0.305222 -0.458231,-0.333435 -0.482451,-0.360644 -0.826594,-0.545406 -1.03333,-0.554564 -0.191331,-0.0085 -0.505683,0.147373 -0.951783,0.463685 -0.191236,0.12061 -0.39133,0.240266 -0.600379,0.358825 -0.209036,0.118592 -0.387163,0.17335 -0.533151,0.16494 -0.30838,-0.01763 -0.52883,-0.264506 -0.658894,-0.738146 -0.04878,-0.158233 -0.07309,-0.302037 -0.07309,-0.431494 -10e-7,-0.207806 0.07305,-0.60344 0.217119,-1.192319 0.223763,-0.81753 0.403165,-1.677501 0.539993,-2.580522 0.136876,-0.930272 0.220932,-2.145202 0.254926,-3.65301 0.115401,-5.056059 0.306263,-15.185782 0.306263,-15.185782 0.01315,-0.517459 -0.02893,-0.996092 -0.126266,-1.434999 -0.0834,-0.438932 -0.201358,-0.904039 -0.35404,-1.394274 -0.01337,-0.05147 -0.05517,-0.193759 -0.124675,-0.425974 -0.06955,-0.232392 -0.104234,-0.426227 -0.103924,-0.581377 4.65e-4,-0.232773 0.106002,-0.401118 0.317019,-0.504998 0.210829,-0.129814 0.583268,-0.195045 1.116962,-0.196236 0.325837,0.0092 0.9476,-0.0022 0.9476,-0.0022 0.308837,-7.19e-4 0.532295,0.06295 0.670174,0.190791 0.138413,0.102223 0.219268,0.268553 0.243514,0.499471 0.874517,3.679989 1.811865,7.379823 3.141306,11.932902 1.175103,4.024504 2.233959,7.295203 2.233959,7.295203 0.0084,-0.02973 -0.0077,-0.119772 -0.0077,-0.119772 -0.09551,-2.657935 -0.246366,-6.41056 -0.29951,-9.661385 -0.05218,-3.191677 0.01637,-5.691485 0.01637,-5.691485 0.01457,-0.48767 -0.02213,-0.934826 -0.112053,-1.342003 -0.08951,-0.43264 -0.203527,-0.890121 -0.341284,-1.371491 -0.02484,-0.102264 -0.0678,-0.265257 -0.129397,-0.493994 -0.06044,-0.253157 -0.08758,-0.443094 -0.08223,-0.569616 0.01001,-0.22718 0.122512,-0.392047 0.337588,-0.493847 0.230392,-0.127154 0.619352,-0.191127 1.166008,-0.192726 0.324656,0.0088 0.945763,-0.0028 0.945763,-0.0028 0.532435,-0.0016 0.898916,0.0598 1.099042,0.183826 0.201558,0.09796 0.293376,0.259302 0.277516,0.484042 -0.01058,0.149909 -0.05799,0.33737 -0.140727,0.563539 -0.08135,0.22239 -0.132297,0.368531 -0.147472,0.415172 -0.176331,0.478407 -0.31714,0.935593 -0.424812,1.36723 -0.09406,0.431926 -0.13654,0.903057 -0.12647,1.413266 0.09325,4.894461 0.658653,10.20115 1.222155,15.344657 z"
                id="path7657"
            />
            <path className="letter"
                d="m 50.445238,74.508023 c -0.515134,0.01146 -0.954636,-0.244353 -1.309357,-0.767579 -0.340271,-0.522238 -0.497562,-1.163386 -0.45298,-1.912061 0.04462,-0.749351 0.278485,-1.382872 0.697541,-1.90101 0.432889,-0.517985 0.930199,-0.773128 1.465288,-0.773128 0.523359,0 0.926403,0.254805 1.221072,0.763361 0.30915,0.509354 0.419331,1.127994 0.35505,1.866001 -0.06426,0.737832 -0.283608,1.373741 -0.671018,1.90599 -0.374006,0.532267 -0.802022,0.807223 -1.305596,0.818426 z m 4.283441,23.262184 c -0.0643,0.49849 -0.235571,0.75126 -0.510983,0.758187 -0.130495,0.0033 -0.296744,-0.06152 -0.498656,-0.194248 -0.201904,-0.132725 -0.396558,-0.265584 -0.583944,-0.398562 -0.440632,-0.346805 -0.748208,-0.518145 -0.922832,-0.514542 -0.18974,0.0039 -0.485222,0.187857 -0.894808,0.549218 -0.04275,0.02871 -0.177725,0.138596 -0.413224,0.333201 -0.219788,0.19365 -0.42672,0.291026 -0.61909,0.292793 -0.296383,0.0027 -0.516253,-0.254218 -0.66055,-0.768898 -0.04677,-0.216919 -0.07349,-0.365894 -0.08003,-0.447344 -0.01971,-0.245251 0.0097,-0.704996 0.08356,-1.38602 0.103791,-0.844088 0.167837,-1.740272 0.194233,-2.691087 0.03849,-0.984194 0.01864,-2.203829 -0.05496,-3.692566 -0.142589,-2.953719 -0.358594,-8.778631 -0.358594,-8.778631 -0.0059,-0.523677 -0.06703,-1.00472 -0.183899,-1.443189 -0.10338,-0.439063 -0.245659,-0.901624 -0.425416,-1.387578 -0.179563,-0.485427 -0.26916,-0.818682 -0.273384,-0.998193 -0.0054,-0.231438 0.09322,-0.400905 0.294668,-0.508769 0.214644,-0.133915 0.57949,-0.207262 1.093421,-0.221181 0.314222,0.0014 0.912026,-0.02516 0.912026,-0.02516 0.513006,-0.01441 0.864053,0.03897 1.054135,0.160443 0.203356,0.09568 0.30628,0.257686 0.310779,0.486989 0.003,0.152919 -0.02633,0.345185 -0.087,0.577605 -0.05985,0.229354 -0.09664,0.378013 -0.107606,0.426653 -0.130838,0.491913 -0.230922,0.961077 -0.301937,1.403869 -0.05898,0.41682 -0.05781,0.898047 0.0062,1.444332 0.327437,2.829266 1.233542,8.748573 1.233542,8.748573 0.238511,1.500677 0.475022,2.751194 0.693886,3.692746 0.231801,0.921944 0.49047,1.832971 0.774701,2.731599 0.203266,0.681377 0.31588,1.133061 0.339001,1.352906 0.01735,0.164925 0.013,0.330589 -0.01322,0.496855 0,0 -1e-5,0 -1e-5,0 z"
                id="path7659"
            />
            <path className="letter"
                d="m 58.497391,98.176642 c -0.659378,-0.39122 -1.277272,-1.173532 -1.856921,-2.340293 -0.564731,-1.165729 -1.041543,-2.526521 -1.426578,-4.068957 -0.38829,-1.56931 -0.657567,-3.15016 -0.798588,-4.731265 -0.21223,-2.199759 -0.116305,-4.137533 0.28903,-5.82829 0.405349,-1.690854 1.036325,-2.978406 1.859059,-3.894797 0.820163,-0.939323 1.718559,-1.413169 2.637333,-1.445478 0.762379,-0.02681 1.427131,0.244484 2.010099,0.811892 0.583773,0.543504 1.043058,1.203094 1.39432,1.986528 0.249084,0.56306 0.470767,1.169651 0.667236,1.82015 0.207979,0.625468 0.339832,1.168948 0.388213,1.632308 0.08328,0.797573 -0.0803,1.215782 -0.516959,1.244615 -0.08829,0.01595 -0.296551,0.01951 -0.296551,0.01951 -0.593302,0.03889 -1.000951,0.02542 -1.221366,-0.03937 -0.210212,-0.09173 -0.328734,-0.255077 -0.354281,-0.489033 -0.0084,-0.07701 0.0017,-0.288856 0.03335,-0.628293 0.02912,-0.366015 0.01855,-0.688913 -0.03294,-0.969666 -0.15443,-0.842062 -0.418591,-1.528198 -0.805889,-2.066487 -0.373752,-0.538489 -0.806252,-0.795779 -1.310983,-0.772812 -0.463417,0.02109 -0.914521,0.26845 -1.341024,0.747674 -0.426519,0.47923 -0.761227,1.227126 -0.981986,2.254074 -0.209965,1.001919 -0.233991,2.26344 -0.05471,3.804064 0.209553,1.800779 0.590228,3.270303 1.10518,4.35511 0.51772,1.090641 1.151462,1.619792 1.888207,1.574887 0.09536,-0.0058 0.262009,-0.04357 0.498919,-0.113524 0.402061,-0.162929 0.661859,-0.441626 0.781365,-0.834157 0.119603,-0.392872 0.188356,-0.8903 0.208856,-1.492078 0.03629,-0.493166 0.08635,-0.849303 0.149068,-1.0703 0.06272,-0.220991 0.207822,-0.338836 0.434523,-0.354288 0.293473,-0.02 0.721729,0.152996 1.288401,0.519708 0.294087,0.192895 0.851529,0.55029 0.851529,0.55029 0.580733,0.365236 0.977032,1.195827 1.191117,2.507377 0.178318,1.092432 0.200344,2.296068 0.04938,3.600512 -0.137727,1.306864 -0.395278,2.31423 -0.769526,3.019006 -0.186831,0.351827 -0.427242,0.536301 -0.719032,0.553436 -0.236337,0.01388 -0.613948,-0.134178 -1.133043,-0.443343 -0.213915,-0.128935 -0.432897,-0.243406 -0.656963,-0.343515 -0.224057,-0.100092 -0.424817,-0.131166 -0.602524,-0.09347 -0.289381,0.04373 -0.525006,0.12619 -0.706771,0.247625 -0.181869,0.121507 -0.386658,0.285794 -0.615936,0.492911 -0.327993,0.323782 -0.600223,0.489615 -0.812668,0.49887 -0.198313,0.0086 -0.435013,-0.06515 -0.709934,-0.221066 0,0 -10e-7,-6.8e-5 -10e-7,-6.8e-5 z"
                id="path7661"
            />
            <path className="letter"
                d="m 69.690089,97.596116 c -0.909234,-0.421297 -1.684721,-1.453941 -2.33669,-3.074744 -0.637829,-1.636397 -1.160791,-3.608709 -1.518016,-5.811391 -0.12683,-0.782044 -0.23217,-1.57502 -0.312252,-2.37331 -0.200948,-2.136059 -0.144084,-4.0068 0.180563,-5.653991 0.337155,-1.644912 0.886151,-2.893791 1.583905,-3.79446 0.695248,-0.897437 1.448803,-1.34702 2.174558,-1.376411 0.734253,-0.02974 1.397328,0.362065 2.043886,1.174959 0.647452,0.814017 1.212818,1.968103 1.788133,3.499415 0.579706,1.488606 1.126559,3.303592 1.61961,5.379839 0.144027,0.621031 0.278081,1.26444 0.400242,1.928661 0.403706,2.19506 0.60093,4.199307 0.523579,6.04975 -0.07694,1.84071 -0.48244,3.069413 -1.214495,3.656487 -0.119424,0.09733 -0.246599,0.151634 -0.38133,0.162939 -0.22911,0.01922 -0.475627,-0.06201 -0.739543,-0.242999 -0.250188,-0.181915 -0.398427,-0.285487 -0.443612,-0.310526 -0.441562,-0.339068 -0.770341,-0.498838 -0.985756,-0.481089 -0.134796,0.01111 -0.297678,0.09646 -0.4895,0.25595 -0.173223,0.186515 -0.278926,0.29625 -0.314428,0.327635 -0.174299,0.186722 -0.367572,0.34598 -0.579709,0.477646 -0.207473,0.160138 -0.406879,0.24732 -0.597424,0.261721 -0.176945,0.01337 -0.310934,-0.0054 -0.401751,-0.05618 0,0 3e-5,10e-5 3e-5,10e-5 z m -0.507381,-9.073987 c 0.124726,0.180785 0.240157,0.267009 0.345659,0.258109 0.06602,-0.0056 0.172343,-0.12414 0.319388,-0.355057 0.125294,-0.201648 0.233705,-0.346932 0.324963,-0.436208 0.08665,-0.116092 0.208875,-0.180726 0.366455,-0.194171 0.236363,-0.02017 0.528926,0.130966 0.879564,0.454576 0.03103,0.02459 0.09547,0.08712 0.193502,0.187746 0.106374,0.07258 0.199016,0.105431 0.277831,0.0985 0.09203,-0.0081 0.170942,-0.124454 0.237497,-0.34833 0.141684,-0.476561 0.197943,-1.089346 0.178023,-1.837149 -0.01129,-0.776111 -0.08682,-1.610866 -0.215083,-2.510818 -0.153316,-1.075698 -0.360404,-2.092284 -0.616172,-3.045707 -0.256122,-0.954744 -0.54422,-1.717872 -0.891244,-2.303419 -0.346478,-0.584627 -0.731906,-0.864087 -1.180755,-0.84055 -0.677927,0.03555 -1.232101,0.675263 -1.54593,1.959174 -0.316569,1.264014 -0.365254,2.738651 -0.131555,4.45245 0.123659,0.906834 0.321624,1.771115 0.584491,2.581848 0.258799,0.784779 0.553086,1.414773 0.873362,1.878983 0,0 4e-6,2e-5 4e-6,2e-5 z"
                id="path7663"
            />
            <path className="letter"
                d="m 82.510768,95.826215 c -0.0017,0.529561 -0.130011,0.807785 -0.382759,0.831508 -0.119785,0.01124 -0.280304,-0.04755 -0.481694,-0.175975 -0.20135,-0.128403 -0.395975,-0.257111 -0.583888,-0.386145 -0.445775,-0.33935 -0.748709,-0.500373 -0.907853,-0.485389 -0.17281,0.01627 -0.421316,0.229311 -0.74879,0.639997 -0.03469,0.03275 -0.145111,0.15955 -0.333802,0.382188 -0.175158,0.221256 -0.350012,0.339806 -0.523767,0.355502 -0.26767,0.02418 -0.498508,-0.234005 -0.695099,-0.770497 -0.05924,-0.169585 -0.09979,-0.311383 -0.121617,-0.425752 -0.03819,-0.2001 -0.05805,-0.44508 -0.05995,-0.734455 -0.0074,-0.317142 -0.01587,-0.533843 -0.02472,-0.647735 6.66e-4,-0.895651 -0.03916,-1.831509 -0.11488,-2.813235 -0.08292,-1.029853 -0.260253,-2.280615 -0.51755,-3.851959 -0.45835,-2.805432 -0.950481,-6.152503 -0.953984,-9.209284 -0.0033,-2.883056 0.527087,-5.005974 0.527087,-5.005974 0.100085,-0.417516 0.155126,-0.796504 0.157663,-1.140231 0.0087,-0.366324 0.0087,-0.748343 0.0051,-1.152348 0.0036,-0.08488 0.0064,-0.222714 0.01296,-0.412955 0.01492,-0.211112 0.04799,-0.370004 0.09365,-0.475194 0.08246,-0.189982 0.250437,-0.327281 0.499564,-0.412175 0.273246,-0.106009 0.683961,-0.159562 1.229663,-0.161855 0.320587,0.0066 0.944279,-0.004 0.944279,-0.004 0.53179,-0.0022 0.874922,0.04765 1.030317,0.148951 0.166603,0.08101 0.2008,0.213158 0.109764,0.398276 -0.06081,0.123648 -0.169154,0.277883 -0.321725,0.465266 -0.147512,0.181175 -0.245101,0.308393 -0.271645,0.344191 -0.315064,0.397324 -0.573813,0.779247 -0.782867,1.14168 -0.195688,0.362565 -0.338792,0.759381 -0.424398,1.191372 -0.474023,2.409013 -0.437617,5.095153 0.04554,8.418656 0.435345,2.994625 1.054153,5.588545 1.054153,5.588545 0.33482,1.517388 0.692229,2.828281 1.012349,3.795228 0.319471,0.954782 0.668886,1.882705 1.041308,2.772236 0.254081,0.641766 0.404506,1.081301 0.451186,1.310924 0.0292,0.14363 0.04139,0.303813 0.03642,0.480601 0,0 -4e-6,0 -4e-6,0 z"
                id="path7665"
            />
            <path className="letter"
                d="m 86.965567,98.048917 c -0.518794,0.04826 -1.092651,-0.302677 -1.727476,-1.041787 -0.620565,-0.739174 -1.210484,-1.746225 -1.76882,-2.998636 -0.563602,-1.28033 -1.004168,-2.649573 -1.303843,-4.07938 -0.15897,-0.758473 -0.27476,-1.574748 -0.339969,-2.434694 -0.08103,-1.20671 0.0117,-2.111882 0.257796,-2.744108 0.254214,-0.660426 0.634879,-1.169277 1.131611,-1.534797 0.495563,-0.364661 1.289302,-0.806853 2.380837,-1.311798 0.263994,-0.116177 0.763211,-0.372652 0.763211,-0.372652 0.03506,-0.02797 0.272339,-0.151726 0.708431,-0.364163 0.437367,-0.213101 0.727215,-0.463899 0.872657,-0.751469 0.07833,-0.157127 0.10339,-0.396525 0.08221,-0.717467 -0.03254,-0.492925 -0.12868,-0.94892 -0.291582,-1.371209 -0.163501,-0.470416 -0.3907,-0.822713 -0.697571,-1.064361 -0.292352,-0.265604 -0.633164,-0.387712 -1.029699,-0.366342 -0.592087,0.03191 -1.118285,0.282733 -1.545617,0.763626 -0.427903,0.481532 -0.629792,1.020066 -0.600013,1.615989 0.0074,0.148795 0.02075,0.261066 0.03838,0.334885 0.01919,0.09885 0.07465,0.246057 0.168186,0.44159 0.09366,0.195793 0.147036,0.3572 0.158566,0.484107 0.03687,0.40587 -0.329398,0.846473 -1.096751,1.328348 -0.311741,0.218544 -0.961097,0.633908 -0.961097,0.633908 -0.122681,0.06348 -0.203295,0.0969 -0.242299,0.100106 -0.155698,0.01281 -0.294057,-0.08291 -0.412861,-0.286448 -0.105593,-0.204168 -0.179957,-0.477378 -0.218381,-0.815431 -0.056,-0.492678 -0.03594,-1.081865 0.07716,-1.748349 0.111726,-0.693433 0.308165,-1.3395 0.587347,-1.941376 0.491125,-1.05193 1.166475,-1.835343 1.950078,-2.376327 0.783229,-0.540738 1.597464,-0.817439 2.38218,-0.847805 0.803907,-0.03111 1.501358,0.197895 2.123915,0.684132 0.625114,0.488248 1.090987,1.205385 1.482367,2.185341 0.317713,0.771959 0.567109,1.748993 0.796175,2.951851 0.197748,0.9704 0.55559,2.865797 0.86767,4.494167 0.164175,0.807246 0.502401,2.446057 0.502401,2.446057 0.299421,1.383033 0.611153,2.641778 0.861429,3.561762 0.270353,0.938387 0.575414,1.949788 0.947064,3.170244 0.220052,0.67574 0.364712,1.175793 0.434178,1.490761 0.0695,0.315111 0.09553,0.619702 0.07792,0.913256 -0.06817,0.623303 -0.256523,0.951502 -0.561574,0.979618 -0.19948,0.01839 -0.600349,-0.157255 -1.205031,-0.522726 -0.458019,-0.3138 -0.876369,-0.532266 -1.253642,-0.657211 -0.350998,-0.127542 -0.718206,-0.172638 -1.101373,-0.135998 -0.343569,0.03285 -0.640867,0.125437 -0.892014,0.277735 -0.251426,0.152469 -0.588339,0.409101 -1.013863,0.771462 -0.578811,0.53803 -1.042992,0.823562 -1.388265,0.855682 0,0 -1.7e-5,-9.3e-5 -1.7e-5,-9.3e-5 z m 0.405641,-8.720192 c 1.32007,-0.129162 1.714552,-1.383943 1.352137,-3.634817 -0.04374,-0.338978 -0.155644,-1.026166 -0.155644,-1.026166 -0.04842,-0.407753 -0.191026,-0.734076 -0.431245,-0.983185 -0.231622,-0.276782 -0.528028,-0.398442 -0.892836,-0.367485 -0.169295,0.01437 -0.345493,0.06951 -0.527837,0.16582 -0.724724,0.331093 -1.235288,0.837031 -1.518477,1.528307 -0.288339,0.664355 -0.358476,1.362845 -0.21004,2.095478 0.137033,0.676354 0.420539,1.233747 0.844861,1.663226 0.4379,0.428731 0.951395,0.61628 1.539069,0.558779 0,0 1.2e-5,4.3e-5 1.2e-5,4.3e-5 z"
                id="path7667"
            />
            <path className="letter"
                d="m 98.749675,101.09936 c -0.78561,-0.89624 -1.433781,-1.750378 -1.943762,-2.567883 -0.500966,-0.857175 -0.850836,-1.7365 -1.049262,-2.636515 -0.305509,-1.385716 -0.248447,-2.839333 0.182155,-4.335488 0.09945,-0.309436 0.262116,-0.947259 0.262116,-0.947259 0.275269,-0.993725 0.585608,-1.493552 0.916413,-1.523643 0.182524,-0.0166 0.355945,0.07287 0.520407,0.269476 0.172561,0.160169 0.44152,0.472561 0.806069,0.940311 0.506347,0.706839 0.97124,1.268125 1.390269,1.671791 0.42774,0.366605 0.90844,0.528169 1.44395,0.481183 0.71963,-0.06314 1.19036,-0.345026 1.41425,-0.841727 0.22379,-0.496409 0.20766,-1.168069 -0.0416,-2.000444 -0.20757,-0.65736 -0.66674,-1.228834 -1.37637,-1.719593 -0.70925,-0.490519 -1.495065,-0.881414 -2.357293,-1.177539 -1.355187,-0.45568 -2.487948,-1.158224 -3.375059,-2.08397 -0.884863,-0.948499 -1.492531,-2.292526 -1.661579,-3.897613 -0.148129,-1.406458 0.08638,-2.545547 0.647187,-3.465303 0.57674,-0.944264 1.340492,-1.634197 2.201476,-2.096926 0.877987,-0.463455 1.728828,-0.700673 2.4921,-0.727522 1.595958,-0.05614 2.648038,0.366623 3.311948,1.278613 0.66546,0.914075 1.12825,2.127512 1.5054,3.708344 0.092,0.355669 0.16235,0.773657 0.2183,1.260063 0.12244,1.064301 -0.0962,1.643722 -0.76119,1.689282 -0.13239,0.01829 -0.42973,0.02958 -0.42973,0.02958 -0.64051,0.0443 -1.06191,0.05912 -1.26888,0.04328 -0.19434,-0.04688 -0.30877,-0.175643 -0.34047,-0.38429 -0.0131,-0.08599 -0.0108,-0.348883 0.0193,-0.760911 0.0304,-0.415151 0.0231,-0.848804 -0.0166,-1.301353 -0.0966,-1.100757 -0.34357,-1.904228 -0.81686,-2.462791 -0.45329,-0.58307 -1.038495,-0.852303 -1.801681,-0.815062 -0.6729,0.03284 -1.250779,0.30793 -1.685091,0.840482 -0.418205,0.532513 -0.617058,1.255732 -0.547764,2.192967 0.04622,0.625169 0.288123,1.210911 0.712319,1.747283 0.437429,0.506178 1.208174,0.966397 2.309841,1.377016 1.567286,0.560818 2.817676,1.188302 3.746956,1.89055 0.92828,0.701474 1.68202,1.597103 2.26631,2.712086 0.58066,1.108068 1.11006,2.608402 1.57016,4.527382 0.34906,1.455832 0.56455,2.950775 0.63018,4.478755 0.0827,1.528887 0.009,2.781323 -0.21498,3.732923 -0.21456,0.90975 -0.55642,1.38485 -1.01355,1.41788 -0.20343,0.0147 -0.44713,-0.0494 -0.7317,-0.19154 -0.25998,-0.10313 -0.52742,-0.24607 -0.80285,-0.42838 -0.86678,-0.58349 -1.55697,-0.85015 -2.06166,-0.81015 -0.26984,0.0214 -0.50258,0.10019 -0.69844,0.23632 -0.18851,0.17616 -0.44483,0.43724 -0.77278,0.78612 -0.44191,0.55946 -0.8426,0.85357 -1.19699,0.8814 -0.440049,0.0346 -0.970107,-0.30798 -1.600916,-1.01733 0,0 -5.9e-5,1.4e-4 -5.9e-5,1.4e-4 z"
                id="path7669"
            />
            <path className="letter"
                d="m 124.77969,69.675928 c 0.84216,-0.0018 1.39294,0.03567 1.65493,0.111951 0.27878,0.06089 0.34428,0.1604 0.20394,0.299522 -0.14258,0.141348 -0.55738,0.377271 -1.22115,0.726944 -0.54274,0.299971 -0.9947,0.5808 -1.36497,0.83962 -0.34018,0.242734 -0.63535,0.512153 -0.87712,0.809682 -1.47192,1.837148 -2.34177,3.968229 -2.68009,6.821601 -0.30507,2.572949 -0.13238,5.021275 -0.13238,5.021275 0.059,1.567459 0.27858,3.069736 0.58469,4.361218 0.16109,0.679632 0.36791,1.385274 0.61854,2.118699 0.14549,0.451689 0.23587,0.753386 0.2699,0.8974 0.0681,0.288086 0.0919,0.551244 0.0713,0.788411 -0.0393,0.563818 -0.24629,0.858938 -0.62176,0.877634 -0.22604,0.01126 -0.69708,-0.145136 -1.41704,-0.463877 -0.85759,-0.429055 -1.51264,-0.62674 -1.95899,-0.601335 -0.22371,0.01273 -0.4711,0.08569 -0.74131,0.219351 -0.2634,0.162804 -0.50441,0.33981 -0.72308,0.531183 -0.50538,0.417107 -0.89463,0.636601 -1.17331,0.654141 -0.38964,0.02452 -0.75981,-0.237266 -1.11383,-0.777521 -0.1871,-0.313401 -0.3151,-0.613405 -0.38393,-0.900674 -0.0275,-0.11489 -0.085,-0.43281 -0.17061,-0.944169 -0.10319,-0.740606 -0.2473,-1.491014 -0.42926,-2.250906 -0.32601,-1.361444 -0.75612,-2.711837 -1.26784,-4.066386 -0.96895,-2.591721 -1.98794,-5.500676 -2.30134,-8.020684 -0.2952,-2.373682 0.20191,-4.043775 0.20191,-4.043775 0.0824,-0.314111 0.11377,-0.597154 0.0859,-0.852338 0.002,-0.273499 -0.0219,-0.567293 -0.0603,-0.887141 -0.0751,-0.367882 -0.0254,-0.629315 0.10899,-0.779235 0.13537,-0.150974 0.40991,-0.260446 0.81694,-0.328368 0.42353,-0.08467 1.05598,-0.127782 1.89573,-0.130402 0.24208,0.0056 0.71562,-0.0022 0.71562,-0.0022 0.95425,-0.0029 1.55282,0.04403 1.7987,0.14019 0.2812,0.07987 0.31639,0.224716 0.12135,0.436599 -0.0807,0.08771 -0.2987,0.263007 -0.66106,0.566633 -0.51139,0.397005 -0.86895,0.775131 -1.08849,1.130456 -0.13596,0.220057 -0.2184,0.433048 -0.25015,0.638123 -0.3708,1.873504 -0.084,3.987288 0.85593,6.776058 0.84929,2.519941 1.92659,4.858718 1.92659,4.858718 0.0484,-2.608893 0.28253,-5.393955 1.23785,-7.871703 0.88051,-2.283729 2.33591,-3.868754 2.33591,-3.868754 0.18633,-0.201684 0.34736,-0.408981 0.48608,-0.62232 0.22439,-0.34509 0.39548,-0.707163 0.5308,-1.090232 0.12868,-0.284159 0.25111,-0.471783 0.32435,-0.548184 0.19741,-0.205903 0.51794,-0.348541 0.94408,-0.427982 0.46268,-0.09538 1.1739,-0.143617 2.13066,-0.14569 -5e-4,10e-7 0.71783,-0.0015 0.71733,-0.0015 z"
                id="path7671"
            />
            <path className="letter"
                d="m 136.2759,90.983551 c -2.92568,4.286809 1.64952,11.921819 0.84306,15.011109 -0.43348,0.57027 -0.97849,0.1727 -1.50313,0.0867 -2.22729,-2.08642 -4.16216,1.30855 -5.25189,-0.25124 -0.3755,-0.67059 -0.6667,-1.39132 -0.875,-2.15965 -0.19663,-0.77765 -0.43628,-2.01212 -0.7595,-3.715892 -0.15315,-0.860247 -0.50614,-2.553406 -0.50614,-2.553406 -0.26715,-1.2947 -0.20027,-1.931722 0.22207,-1.946075 0.18191,-0.0062 0.3878,0.09575 0.61645,0.307014 0.24844,0.24099 0.58236,0.608493 0.9944,1.102127 0.69249,0.849308 1.20508,1.108937 1.78119,1.621869 1.403,0.825712 1.72158,-0.361316 1.57936,-1.825879 -0.1426,-1.468557 -0.73952,-3.132675 -1.11481,-3.468057 -1.16911,-0.948092 -1.04834,-0.349599 -1.82796,-0.186278 -0.38188,0.01085 -0.87129,-0.185439 -1.4732,-0.583232 -0.55214,-0.369071 -1.16102,-1.321098 -1.81127,-2.767593 -0.64618,-1.450704 -1.248,-3.292114 -1.65393,-5.250321 -0.13295,-0.641336 -0.24545,-1.321921 -0.32513,-2.021511 -0.12877,-1.109701 -0.23693,-2.322832 -0.23873,-3.535381 -0.002,-1.111105 0.101,-1.933202 0.101,-1.933202 0.0334,-0.367736 0.0297,-0.697839 -0.0167,-0.994221 -0.0464,-0.297291 -0.12058,-0.614018 -0.21517,-0.953515 -0.0158,-0.0516 -0.0425,-0.162116 -0.0719,-0.31915 -0.0298,-0.158627 -0.0271,-0.290216 0.005,-0.39526 0.0531,-0.1751 0.23276,-0.3073 0.53278,-0.397559 0.31424,-0.09049 0.82807,-0.140514 1.53944,-0.149985 0.11443,0.0051 0.3204,-0.0042 0.3204,-0.0042 0.66932,-0.0087 1.11753,0.02845 1.34409,0.110841 0.24733,0.06523 0.34436,0.174927 0.29611,0.33077 -0.0322,0.104062 -0.11347,0.234788 -0.24104,0.394293 -0.11409,0.160537 -0.18419,0.256689 -0.22225,0.293868 -0.2678,0.357937 -0.47613,0.697683 -0.63224,1.013802 -0.13952,0.297757 -0.21603,0.636875 -0.22201,1.021575 -0.007,1.546613 0.57851,5.054338 0.57851,5.054338 0.27977,1.350973 0.77749,2.497398 1.39316,3.315014 0.62345,0.827865 1.22601,1.250308 1.79823,1.237604 0.53103,-0.01179 0.92017,-0.376454 1.19106,-1.073561 0.28075,-0.72527 0.34103,-1.69343 0.23489,-2.873259 -0.1642,-1.169618 -0.31282,-2.45032 -0.35098,-3.716641 -0.035,-1.162424 0.0477,-2.016737 0.0477,-2.016737 0.032,-0.344483 0.0174,-0.662242 -0.0465,-0.955925 -0.0496,-0.294728 -0.12795,-0.60885 -0.22789,-0.945268 -0.0166,-0.05117 -0.0449,-0.160627 -0.0769,-0.316075 -0.0322,-0.157002 -0.0314,-0.286981 -6.4e-4,-0.390536 0.0256,-0.08633 0.069,-0.155286 0.12859,-0.207043 0.0962,-0.120383 0.26264,-0.206595 0.49603,-0.259203 0.24787,-0.05271 0.60246,-0.08078 1.06286,-0.08409 0.33156,0.0041 0.97228,-0.0066 0.97228,-0.0066 0.43237,-0.0027 0.76254,0.02063 0.99029,0.06992 0.38124,0.06544 0.53671,0.199618 0.47601,0.405438 -0.041,0.138937 -0.20717,0.368664 -0.48374,0.706564 -0.26432,0.353491 -0.46884,0.681123 -0.62124,0.975018 -0.13823,0.294463 -0.21158,0.621253 -0.21484,0.983868 -0.47091,3.783064 1.60979,8.700956 1.43997,14.214773 0,0 0,2.3e-5 0,2.3e-5 z"
                id="path7673"
            />
            <path className="letter"
                d="m 142.81555,94.185272 c -0.7187,-0.484023 -1.44012,-1.413492 -2.17355,-2.739655 -0.71298,-1.315212 -1.369,-2.820946 -1.91515,-4.412869 -0.55375,-1.624451 -0.95692,-3.173854 -1.16308,-4.629137 -0.30491,-2.031552 -0.15103,-3.633623 0.4391,-4.969007 0.58443,-1.322513 1.49805,-2.262498 2.5634,-2.906907 1.06702,-0.661185 2.17111,-0.977317 3.16368,-0.975652 0.83289,0.0014 1.49335,0.215292 2.02874,0.654732 0.54141,0.422443 0.94712,0.938794 1.24026,1.563849 0.20701,0.449222 0.39049,0.941124 0.55338,1.479202 0.17846,0.519636 0.28834,0.977181 0.31363,1.370236 0.0436,0.677698 -0.15634,1.027457 -0.65135,1.02162 -0.10032,0.0071 -0.33487,-0.0039 -0.33487,-0.0039 -0.66971,-0.0075 -1.12536,-0.04539 -1.36962,-0.114915 -0.23119,-0.09175 -0.35634,-0.23828 -0.37252,-0.437244 -0.005,-0.06459 0.0171,-0.244529 0.0738,-0.524448 0.0557,-0.302938 0.0676,-0.568589 0.0324,-0.800206 -0.10525,-0.694667 -0.32593,-1.247892 -0.68892,-1.682665 -0.34709,-0.433278 -0.78431,-0.644403 -1.34362,-0.645942 -0.51087,-0.0014 -1.04867,0.169082 -1.58023,0.519379 -0.53039,0.349505 -0.9963,0.915723 -1.32076,1.728463 -0.31241,0.797682 -0.40536,1.832382 -0.21792,3.196581 0.21809,1.587231 0.70482,3.019373 1.31201,4.098162 0.61481,1.092334 1.3323,1.675618 2.12477,1.679709 0.10285,5.31e-4 0.28026,-0.02635 0.53337,-0.08026 0.42705,-0.135966 0.69631,-0.396351 0.81109,-0.77616 0.11487,-0.38018 0.17272,-0.861804 0.1808,-1.437865 0.0281,-0.469391 0.0788,-0.801729 0.14556,-1.003783 0.0669,-0.202354 0.22736,-0.301359 0.47907,-0.298781 0.32507,0.0033 0.80468,0.196533 1.4375,0.588027 0.3294,0.205729 0.95411,0.594276 0.95411,0.594276 0.65253,0.400098 1.09845,1.230777 1.3646,2.56556 0.22233,1.115068 0.28281,2.356581 0.17829,3.739929 -0.0901,1.38842 -0.30546,2.484371 -0.65605,3.24761 -0.17496,0.380865 -0.41482,0.571403 -0.7208,0.567846 -0.24835,-0.0029 -0.65483,-0.201065 -1.22528,-0.590113 -0.23496,-0.161894 -0.47427,-0.307173 -0.7177,-0.436046 -0.24333,-0.128812 -0.45672,-0.177746 -0.63922,-0.147271 -0.29887,0.02972 -0.53717,0.107644 -0.71471,0.233958 -0.17753,0.126292 -0.37451,0.300914 -0.59017,0.52477 -0.30629,0.352348 -0.56636,0.530264 -0.78327,0.530005 -0.20234,-2.41e-4 -0.45215,-0.09761 -0.75092,-0.291055 0,0 9e-5,-8.1e-5 9e-5,-8.1e-5 z"
                id="path7675"
            />
            <path className="letter"
                d="m 156.11466,97.212978 c -0.5715,-0.01476 -1.1868,-0.485197 -1.86814,-1.395898 -0.66475,-0.907726 -1.29484,-2.104846 -1.89084,-3.541748 -0.60065,-1.466482 -1.06809,-2.987373 -1.37088,-4.509948 -0.16073,-0.808257 -0.2702,-1.659577 -0.31833,-2.534227 -0.0555,-1.225092 0.0823,-2.100764 0.38857,-2.690403 0.31598,-0.614951 0.77427,-1.06417 1.35972,-1.362457 0.58557,-0.298346 1.51458,-0.637062 2.79185,-1.007053 0.30827,-0.08433 0.89246,-0.277543 0.89246,-0.277543 0.0425,-0.02385 0.31764,-0.116655 0.82807,-0.275902 0.51063,-0.159369 0.85128,-0.370961 1.02582,-0.632876 0.094,-0.143117 0.12838,-0.370815 0.11041,-0.679615 -0.0276,-0.474232 -0.13107,-0.91533 -0.3115,-1.3261 -0.18039,-0.455763 -0.43515,-0.800875 -0.77972,-1.046516 -0.32759,-0.266507 -0.71034,-0.400986 -1.1579,-0.408627 -0.66738,-0.01139 -1.26908,0.180556 -1.76844,0.58434 -0.50097,0.405071 -0.75197,0.877029 -0.7403,1.427297 0.003,0.137407 0.014,0.242092 0.0314,0.311777 0.0183,0.09297 0.0762,0.23374 0.17612,0.423896 0.10009,0.190433 0.15543,0.346282 0.16399,0.466192 0.0274,0.383965 -0.40954,0.764324 -1.31087,1.144063 -0.36737,0.175262 -1.1297,0.50431 -1.1297,0.50431 -0.14348,0.0479 -0.23739,0.07153 -0.28231,0.07069 -0.17934,-0.0033 -0.3342,-0.107747 -0.4621,-0.310834 -0.11265,-0.202305 -0.18639,-0.465383 -0.21561,-0.783022 -0.0426,-0.463228 0.007,-1.002954 0.16859,-1.598693 0.16093,-0.620103 0.41752,-1.182731 0.76443,-1.697574 0.6079,-0.896645 1.41169,-1.542919 2.30402,-1.973441 0.89331,-0.430995 1.8016,-0.637137 2.66511,-0.626961 0.88555,0.01044 1.65278,0.246178 2.34919,0.725441 0.69783,0.480256 1.23823,1.178528 1.69082,2.140515 0.36754,0.759285 0.6577,1.724892 0.90204,2.929838 0.24702,1.134173 0.5414,2.734286 0.84892,4.600788 0.14527,0.818603 0.44317,2.580372 0.44317,2.580372 0.25956,1.471827 0.52952,2.847882 0.7482,3.858322 0.23545,1.012494 0.51706,2.184423 0.83571,3.535067 0.19514,0.761566 0.31821,1.329391 0.37108,1.681052 0.0531,0.353202 0.0584,0.689232 0.0165,1.007467 -0.12325,0.671433 -0.35547,1.005188 -0.69383,0.991741 -0.22182,-0.0088 -0.65009,-0.260373 -1.29466,-0.750544 -0.48558,-0.411814 -0.93592,-0.71279 -1.3468,-0.904776 -0.38159,-0.191019 -0.78709,-0.293812 -1.21431,-0.308573 -0.38312,-0.01324 -0.71795,0.04622 -1.00376,0.178751 -0.28528,0.132289 -0.67246,0.36923 -1.15656,0.71309 -0.66202,0.519137 -1.1789,0.778261 -1.55958,0.768431 0,0 -7e-5,-1.11e-4 -7e-5,-1.11e-4 z m 0.81679,-9.381471 c 1.50493,0.0491 2.0409,-1.206508 1.72883,-3.543084 -0.0346,-0.351187 -0.13239,-1.053637 -0.13239,-1.053637 -0.0378,-0.414894 -0.18888,-0.757888 -0.45626,-1.034352 -0.25593,-0.30237 -0.59418,-0.457735 -1.01649,-0.470375 -0.196,-0.0059 -0.40161,0.02764 -0.61585,0.1008 -0.84907,0.239929 -1.45909,0.676466 -1.81293,1.326427 -0.35923,0.623666 -0.46757,1.311886 -0.32679,2.072874 0.12993,0.702317 0.43253,1.311624 0.89897,1.811576 0.48277,0.501824 1.05894,0.767735 1.73281,0.789722 0,0 1e-4,4.9e-5 1e-4,4.9e-5 z"
                id="path7677"
            />
            <path className="letter"
                d="m 167.90001,96.565732 c -0.75918,-0.881579 -1.37909,-1.708254 -1.8545,-2.481834 -0.46267,-0.807041 -0.76217,-1.610295 -0.89384,-2.406036 -0.20299,-1.226714 -0.001,-2.446509 0.62419,-3.643694 0.14124,-0.245058 0.38576,-0.757572 0.38576,-0.757572 0.40589,-0.792817 0.80107,-1.16782 1.16533,-1.149441 0.20135,0.01016 0.38118,0.107485 0.5391,0.293157 0.17052,0.15613 0.43016,0.45284 0.77449,0.892529 0.47243,0.6593 0.9125,1.19258 1.3207,1.588946 0.42161,0.366169 0.92244,0.567706 1.50655,0.601622 0.78469,0.04556 1.32634,-0.126439 1.62869,-0.512766 0.30186,-0.385736 0.36763,-0.953019 0.19784,-1.68499 -0.1458,-0.580075 -0.57685,-1.122589 -1.2944,-1.628869 -0.71724,-0.506095 -1.53299,-0.936452 -2.44602,-1.294803 -1.43617,-0.555141 -2.60868,-1.279986 -3.50097,-2.148894 -0.89144,-0.891113 -1.43991,-2.052438 -1.54622,-3.383522 -0.0929,-1.163777 0.1771,-2.071679 0.76259,-2.78574 0.60147,-0.732168 1.36859,-1.256436 2.23707,-1.592689 0.88769,-0.336284 1.7481,-0.493834 2.55382,-0.474733 1.67339,0.03967 2.88235,0.466319 3.71872,1.331567 0.83704,0.865926 1.44777,1.995027 1.86184,3.436562 0.10069,0.324291 0.17278,0.701008 0.21895,1.134182 0.10107,0.948247 -0.18737,1.422408 -0.90962,1.383643 -0.14476,0.001 -0.47014,-0.0251 -0.47014,-0.0251 -0.701,-0.03722 -1.1627,-0.07398 -1.38756,-0.111672 -0.20927,-0.06283 -0.32554,-0.186038 -0.34753,-0.368105 -0.009,-0.07655 0.01,-0.298077 0.0621,-0.650043 0.0527,-0.353093 0.0601,-0.728202 0.0253,-1.123839 -0.0848,-0.962757 -0.38257,-1.690465 -0.92264,-2.21666 -0.52238,-0.548667 -1.1779,-0.824043 -1.99667,-0.850091 -0.72463,-0.02305 -1.32842,0.168987 -1.78259,0.582441 -0.43715,0.415152 -0.64627,1.002788 -0.59416,1.792056 0.0348,0.526931 0.27313,1.038817 0.70922,1.533083 0.45204,0.470127 1.26748,0.940839 2.44506,1.416039 1.6766,0.656171 2.9899,1.345592 3.93442,2.061358 0.94423,0.715531 1.66682,1.577178 2.16713,2.601018 0.49919,1.021487 0.87551,2.352582 1.11693,4.032376 0.18272,1.271357 0.21416,2.554758 0.0921,3.848753 -0.104,1.295768 -0.33008,2.347174 -0.67019,3.125714 -0.32651,0.7455 -0.73148,1.110172 -1.21351,1.081803 -0.21438,-0.01262 -0.46288,-0.09769 -0.74678,-0.255073 -0.26206,-0.120841 -0.52822,-0.276929 -0.79925,-0.468073 -0.852,-0.609898 -1.554,-0.927614 -2.09036,-0.957476 -0.28675,-0.01596 -0.53999,0.0223 -0.75928,0.115064 -0.21414,0.127592 -0.51069,0.322376 -0.88509,0.584101 -0.51397,0.431558 -0.95616,0.641056 -1.33094,0.62253 -0.46481,-0.02298 -0.99474,-0.387562 -1.60557,-1.086947 0,0 -5e-5,1.16e-4 -5e-5,1.16e-4 z"
                id="path7679"
            />
            <path className="letter"
                d="m 198.23764,87.822911 c 0.20279,1.480906 0.39879,2.842053 0.57296,3.932331 0.19107,1.084064 0.31139,1.843893 0.34708,2.083251 0.15387,1.004314 0.23238,1.617858 0.24203,1.757087 0.0313,0.451442 0.01,0.82652 -0.0632,1.122684 -0.11283,0.535208 -0.32678,0.792521 -0.63827,0.767417 -0.23916,-0.01927 -0.62629,-0.263948 -1.17076,-0.733569 -0.19432,-0.167636 -0.39843,-0.33588 -0.61238,-0.504706 -0.19331,-0.136847 -0.35511,-0.210551 -0.48456,-0.22115 -0.22168,-0.01815 -0.57695,0.16406 -1.06399,0.550982 -0.15561,0.139821 -0.32163,0.26399 -0.49802,0.372333 -0.17428,0.13921 -0.32613,0.203981 -0.45575,0.193739 -0.29668,-0.02344 -0.52923,-0.333981 -0.70483,-0.927687 -1.29522,-3.699764 -2.74525,-7.256586 -4.53282,-11.181929 -1.57362,-3.455545 -2.72977,-5.832673 -2.72977,-5.832673 0.31895,2.215923 1.2628,7.765434 1.2628,7.765434 0.26689,1.588584 0.55401,2.963428 0.846,4.018283 0.29055,1.032882 0.60675,2.034861 0.94493,2.990076 0.0314,0.123802 0.10039,0.35153 0.20798,0.693717 0.10436,0.310344 0.16594,0.573635 0.18549,0.788408 0.0112,0.122752 0.006,0.275001 -0.0146,0.457148 -0.0792,0.576408 -0.30718,0.853474 -0.67997,0.825264 -0.24281,-0.01837 -0.5316,-0.148522 -0.86899,-0.39015 -0.31792,-0.239614 -0.50895,-0.37784 -0.56728,-0.41262 -0.59893,-0.444912 -1.02453,-0.67557 -1.26802,-0.693823 -0.22496,-0.01686 -0.58155,0.155025 -1.06644,0.520225 -0.20979,0.138932 -0.42891,0.277733 -0.65736,0.41646 -0.22849,0.138823 -0.42685,0.202595 -0.59568,0.190581 -0.35672,-0.02538 -0.63686,-0.326173 -0.84702,-0.897749 -0.0761,-0.190728 -0.1228,-0.363309 -0.13972,-0.518035 -0.027,-0.247366 0.005,-0.720604 0.0935,-1.40789 0.15124,-0.954315 0.24584,-1.937024 0.28484,-2.945921 0.0354,-1.044905 -0.032,-2.368866 -0.19722,-3.957432 -0.28866,-2.775518 -0.67692,-6.261495 -0.7476,-9.032364 -0.0689,-2.702099 0.23499,-4.585136 0.23499,-4.585136 0.0616,-0.392735 0.0578,-0.751788 -0.0132,-1.078459 -0.0526,-0.32708 -0.13619,-0.667043 -0.24394,-1.02206 -0.008,-0.0373 -0.0366,-0.139958 -0.079,-0.306071 -0.0423,-0.16602 -0.0435,-0.303133 -0.007,-0.412029 0.0544,-0.163299 0.2324,-0.27993 0.52726,-0.350831 0.30126,-0.08892 0.79354,-0.132434 1.47315,-0.129746 0.41082,0.0083 1.20859,0.0048 1.20859,0.0048 0.39392,0.0016 0.6654,0.04866 0.8173,0.142148 0.15745,0.07496 0.23044,0.196263 0.2224,0.364929 0.49554,2.667204 1.90214,5.722606 3.89074,9.984778 1.77689,3.808419 3.32708,7.366191 3.32708,7.366191 0.007,-0.03048 -0.015,-0.124275 -0.015,-0.124275 -0.22321,-2.612138 -0.61425,-6.57174 -0.75721,-9.295391 -0.14904,-2.839301 -0.0208,-4.858299 -0.0208,-4.858299 0.0266,-0.398846 -0.0134,-0.763262 -0.12111,-1.09397 -0.10658,-0.352054 -0.23909,-0.717914 -0.39322,-1.10023 -0.0278,-0.08394 -0.0727,-0.206692 -0.13874,-0.389079 -0.0616,-0.198039 -0.0817,-0.345432 -0.0647,-0.44278 0.0307,-0.17544 0.19053,-0.300592 0.4742,-0.376607 0.30512,-0.09525 0.80794,-0.141703 1.50489,-0.138309 0.41155,0.0092 1.20759,0.0059 1.20759,0.0059 0.67983,0.0034 1.14572,0.0553 1.40131,0.157363 0.25802,0.08189 0.37637,0.213886 0.35653,0.396445 -0.0132,0.12169 -0.0737,0.273779 -0.18058,0.456623 -0.10546,0.180463 -0.171,0.297581 -0.19101,0.336003 -0.22938,0.387578 -0.4138,0.758127 -0.55508,1.111586 -0.12294,0.353943 -0.17687,0.743812 -0.15742,1.173905 0.17234,3.904428 1.16342,9.263958 1.90882,14.414785 z"
                id="path7681"
            />
            <path className="letter"
                d="m 210.48555,91.762224 c 0.64744,0.634843 1.01768,1.692542 1.0908,3.191931 0.063,1.291302 -0.0936,2.668178 -0.47375,4.136019 -0.38102,1.432356 -0.85674,2.539586 -1.40629,3.301166 -0.28901,0.38039 -0.57298,0.5628 -0.85043,0.54463 -0.16657,-0.0109 -0.34721,-0.0958 -0.54276,-0.25501 -0.19554,-0.15922 -0.38478,-0.33652 -0.56799,-0.53192 -0.50771,-0.58313 -0.94138,-0.88836 -1.29259,-0.91368 -0.22481,-0.0162 -0.42036,0.0428 -0.58657,0.17748 -0.15218,0.13576 -0.32423,0.3437 -0.51691,0.62492 -0.12395,0.17553 -0.25574,0.3141 -0.39509,0.41536 -0.12482,0.13922 -0.25772,0.20424 -0.39857,0.19462 -0.15505,-0.0106 -0.36044,-0.13574 -0.61822,-0.376 -0.8374,-0.8419 -1.52666,-2.573229 -2.18752,-5.169215 -0.65305,-2.565329 -1.14795,-5.337707 -1.43621,-8.114666 -0.0703,-0.677117 -0.11661,-1.166104 -0.13836,-1.499368 -0.30473,-4.520559 -0.0871,-7.375417 0.77973,-9.324601 0.84929,-1.910748 2.10075,-2.899396 3.60429,-3.026043 0.14126,8.24e-4 0.39037,-0.02459 0.39037,-0.02459 1.43534,0.06307 2.71685,1.209641 3.90718,3.625588 0.39966,0.827052 0.75747,1.835502 1.06807,3.031409 0.32589,1.200187 0.54181,2.336592 0.64624,3.404352 0.0822,0.840483 0.0747,1.522983 -0.0201,2.03775 -0.0836,0.483527 -0.25434,0.715742 -0.51142,0.693148 -0.096,0.0016 -0.32174,-0.02828 -0.32174,-0.02828 -0.26332,-0.04596 -0.82629,-0.171284 -0.82629,-0.171284 -0.23283,-0.0533 -0.50924,-0.110393 -0.82946,-0.171239 -0.30583,-0.05959 -0.64678,-0.105797 -1.02304,-0.138665 -0.82458,-0.07203 -1.53328,0.06224 -2.11931,0.404978 -0.59005,0.309982 -1.09623,0.956362 -1.52163,1.959533 0.31765,1.372925 0.70521,2.510556 1.1707,3.384654 0.46371,0.84063 0.97393,1.288929 1.54701,1.338564 0.57145,0.04949 0.94866,-0.163405 1.13124,-0.634673 0.18249,-0.470986 0.30754,-1.153075 0.36906,-2.035799 0.0536,-0.610529 0.12357,-1.059798 0.21335,-1.355905 0.0896,-0.295474 0.25606,-0.431656 0.49966,-0.409963 0.27127,0.02416 0.70952,0.31473 1.30244,0.874433 0.28958,0.279559 0.57755,0.559657 0.86408,0.840365 z m -7.6275,-4.874306 c 0.59148,-0.987904 1.25614,-1.632356 1.98942,-1.952456 0.72957,-0.35202 1.56689,-0.520332 2.50368,-0.506371 0.41072,-0.06102 0.55916,-0.637531 0.4445,-1.705952 -0.0437,-0.407455 -0.10409,-0.766885 -0.18101,-1.07939 -0.25067,-1.122253 -0.61068,-1.986204 -1.08052,-2.607992 -0.45833,-0.650587 -0.97835,-0.985896 -1.56411,-1.020875 -0.54072,-0.03229 -1.01928,0.257362 -1.42254,0.873604 -0.39266,0.589337 -0.67354,1.451936 -0.83407,2.620113 -0.16119,1.172804 -0.15343,2.539989 0.0114,4.158283 0.0448,0.404132 0.0893,0.810717 0.13322,1.221036 z"
                id="path7683"
            />
            <path className="letter"
                d="m 221.50578,79.374793 c 0.15527,0.605666 0.24532,1.086074 0.27102,1.435747 0.028,0.381668 -0.0149,0.728198 -0.12833,1.038069 -0.11575,0.277861 -0.32365,0.597335 -0.62347,0.957987 -0.20185,0.266009 -0.63715,0.767237 -0.63715,0.767237 -0.42489,0.512226 -0.70559,0.763541 -0.84316,0.752514 -0.0962,-0.0077 -0.15665,-0.173603 -0.18184,-0.496443 -0.0115,-0.361258 -0.0671,-1.107615 -0.0671,-1.107615 -0.036,-0.448382 -0.0975,-0.864861 -0.18444,-1.249752 -0.10609,-0.449374 -0.2465,-0.804335 -0.42121,-1.066665 -0.16074,-0.261305 -0.34627,-0.398391 -0.55623,-0.412727 -0.15398,-0.01051 -0.27045,0.01268 -0.34909,0.06954 -0.34525,0.193933 -0.65553,0.716063 -0.92709,1.574268 -0.27275,0.861984 -0.45816,2.026113 -0.56739,3.535156 -0.0981,1.480115 -0.0738,3.158251 0.0493,5.080719 0.0454,0.708998 0.0831,1.246968 0.1179,1.62415 0.17487,1.911861 0.32108,3.484767 0.46477,4.711289 0.15557,1.18762 0.32541,2.372984 0.50803,3.53983 0.12678,0.88159 0.18552,1.47214 0.1848,1.75037 -5.4e-4,0.21111 -0.0215,0.42118 -0.0628,0.63029 -0.11049,0.62817 -0.29469,0.93685 -0.54846,0.92298 -0.12022,-0.007 -0.26622,-0.10308 -0.43876,-0.29005 -0.17254,-0.18698 -0.33904,-0.37395 -0.49943,-0.56082 -0.37407,-0.48343 -0.64506,-0.73145 -0.80696,-0.74171 -0.17569,-0.0111 -0.46617,0.20096 -0.87394,0.63943 -0.0407,0.0332 -0.17668,0.16753 -0.4086,0.40378 -0.21842,0.23726 -0.41641,0.35108 -0.5933,0.34038 -0.27278,-0.0165 -0.4534,-0.36913 -0.55014,-1.05759 -0.0278,-0.28929 -0.0424,-0.48638 -0.043,-0.59432 -0.002,-0.32463 0.0561,-0.92515 0.1653,-1.80848 0.14666,-1.091664 0.25409,-2.247434 0.31878,-3.464589 0.0772,-1.251379 0.10113,-2.82379 0.0505,-4.692655 -0.1016,-3.878583 -0.52766,-10.732985 -0.52766,-10.732985 -0.033,-0.619226 -0.12496,-1.190898 -0.2758,-1.715708 -0.13668,-0.524201 -0.31818,-1.075903 -0.54363,-1.653671 -0.22534,-0.577471 -0.34543,-0.964279 -0.36347,-1.170157 -0.0232,-0.264707 0.0686,-0.449253 0.27404,-0.555849 0.21713,-0.135031 0.59896,-0.190022 1.14247,-0.164191 0.33331,0.02482 0.96456,0.04597 0.96456,0.04597 0.54235,0.02592 0.91825,0.117647 1.12995,0.276599 0.22336,0.129747 0.34615,0.329471 0.36932,0.599877 0.0155,0.180262 -5.5e-4,0.404188 -0.0476,0.672327 -0.0468,0.266516 -0.0749,0.434468 -0.0834,0.492672 -0.10445,0.567729 -0.18142,1.110956 -0.23189,1.62821 -0.0392,0.487887 -0.0134,1.058463 0.0766,1.718645 0.0989,0.649983 0.26503,1.950078 0.26503,1.950078 0.16241,-2.364858 0.57091,-4.095842 1.2426,-5.308581 0.66375,-1.233682 1.4763,-1.812143 2.40322,-1.736301 0.99877,0.07945 1.79483,1.192484 2.3873,3.422846 0,0 -1.9e-4,-1.07e-4 -1.9e-4,-1.07e-4 z"
                id="path7685"
            />
            <path className="letter"
                d="m 233.19063,95.817949 c 0.0121,0.441175 0.0184,1.077416 0.0187,1.907334 5.9e-4,2.383317 -0.11667,4.319497 -0.35457,5.798987 -0.23838,1.50808 -0.59935,2.74871 -1.09015,3.72329 -0.3066,0.60559 -0.57942,1.0165 -0.81427,1.23019 -0.2352,0.23993 -0.48261,0.36241 -0.74109,0.36603 -0.0981,0.001 -0.30767,-0.0221 -0.62787,-0.0716 -0.4186,-0.10128 -0.80881,-0.15193 -1.17086,-0.15038 -0.49914,0.002 -1.11638,0.10937 -1.85736,0.32259 -0.47281,0.13332 -0.85133,0.1993 -1.13236,0.19784 -0.46035,-0.002 -0.79236,-0.23484 -0.99572,-0.69901 -0.23922,-0.54602 -0.38849,-1.13407 -0.44889,-1.76209 -0.048,-0.63392 -0.0535,-1.64395 -0.0333,-3.06586 0.0192,-0.71126 0.0207,-2.16185 0.0207,-2.16185 0.005,-1.1142 0.194,-1.658146 0.57938,-1.637608 0.16636,0.0089 0.33264,0.112224 0.49828,0.309548 0.17838,0.22495 0.40703,0.56001 0.68366,1.00341 0.45293,0.74814 0.88028,1.34049 1.28906,1.78286 0.4084,0.44198 0.90342,0.66812 1.48355,0.68081 0.51766,0.0113 0.92743,-0.48683 1.22501,-1.48404 0.29731,-0.97042 0.5134,-2.337398 0.64136,-4.093683 -0.16924,-0.05957 -0.38743,-0.226698 -0.6565,-0.502934 -0.17132,-0.192555 -0.32493,-0.345228 -0.46035,-0.457635 -0.12299,-0.08532 -0.27058,-0.132494 -0.44297,-0.141457 -0.23396,-0.01217 -0.53542,0.130518 -0.90581,0.429501 -0.20991,0.174789 -0.39601,0.297987 -0.55789,0.369245 -0.14918,0.09855 -0.31781,0.142901 -0.50614,0.132615 -0.33903,-0.01852 -0.73732,-0.22773 -1.19932,-0.630686 -0.42488,-0.375005 -0.78488,-1.268128 -1.103,-2.681673 -0.31775,-1.435728 -0.52041,-3.226731 -0.61711,-5.331909 -0.0314,-0.684284 -0.048,-1.418504 -0.0496,-2.198111 -0.009,-2.244305 -0.0945,-6.575429 -0.0945,-6.575429 -0.0177,-0.480145 -0.0809,-0.923828 -0.19019,-1.331129 -0.10928,-0.40727 -0.26284,-0.853309 -0.4613,-1.336042 -0.0329,-0.07655 -0.0913,-0.228156 -0.17617,-0.455742 -0.0847,-0.227272 -0.13218,-0.41459 -0.14225,-0.562968 -0.0168,-0.247146 0.10321,-0.425106 0.35995,-0.535317 0.27058,-0.109489 0.75458,-0.147441 1.44769,-0.113397 0.11443,0.01519 0.31171,0.01531 0.31171,0.01531 0.65082,0.03198 1.10151,0.116264 1.35572,0.254125 0.26651,0.113367 0.40474,0.283325 0.41608,0.509898 0.008,0.15102 -0.0241,0.337739 -0.0945,0.560137 -0.0568,0.223251 -0.0973,0.359222 -0.12196,0.408219 -0.15119,0.494617 -0.26906,0.954137 -0.35442,1.37822 -0.0732,0.399837 -0.0888,0.853896 -0.0479,1.364702 0.18015,2.05395 0.47929,6.20223 0.47929,6.20223 0.11652,1.541624 0.38501,2.769004 0.805,3.665444 0.42052,0.897468 0.87553,1.36304 1.37591,1.397139 0.46209,0.03149 0.86428,-0.296375 1.21078,-0.978721 0.35778,-0.70642 0.57034,-1.711464 0.63291,-3.005374 0.0208,-2.339328 0.016,-6.980266 0.016,-6.980266 0.002,-0.462779 -0.0484,-0.902757 -0.15152,-1.319537 -0.0899,-0.415794 -0.22131,-0.872392 -0.3957,-1.367699 -0.029,-0.07871 -0.08,-0.234045 -0.15418,-0.468286 -0.074,-0.233788 -0.11363,-0.426839 -0.11838,-0.58 -0.004,-0.127589 0.0131,-0.22851 0.0512,-0.302945 0.0486,-0.175718 0.17311,-0.29669 0.37353,-0.363234 0.21391,-0.06581 0.53707,-0.08829 0.96733,-0.06724 0.31289,0.02521 0.90538,0.04423 0.90538,0.04423 0.40172,0.02002 0.71512,0.07366 0.94159,0.162127 0.37293,0.121471 0.55764,0.337702 0.55775,0.648486 7e-5,0.207508 -0.0922,0.551437 -0.27377,1.033236 -0.16867,0.507629 -0.30272,0.965404 -0.4036,1.372668 -0.088,0.408368 -0.12297,0.858021 -0.10659,1.350327 0.16286,5.093425 0.28533,9.688511 0.4046,14.793085 z"
                id="path7687"
            />
        </g>
    </g>
</svg>